<?xml version="1.0" encoding="UTF-8"?>
<svg width="719px" height="194px" viewBox="0 0 719 194" version="1.1" xmlns="http://www.w3.org/2000/svg" xmlns:xlink="http://www.w3.org/1999/xlink">
    <!-- Generator: Sketch 55.2 (78181) - https://sketchapp.com -->
    <title>Group 23</title>
    <desc>Created with Sketch.</desc>
    <defs>
        <path d="M61.5072032,79.3612224 C61.5072032,96.1268013 47.7390633,109.718744 30.7540993,109.718744 C13.7691353,109.718744 0.00099540715,96.1268013 0.00099540715,79.3612224 L0.00099540715,30.9084044 C0.00099540715,14.1428254 13.7691353,0.55088306 30.7540993,0.55088306 C47.7390633,0.55088306 61.5072032,14.1428254 61.5072032,30.9084044 L61.5072032,79.3612224 Z" id="path-1"></path>
        <filter x="-42.3%" y="-20.2%" width="184.5%" height="147.6%" filterUnits="objectBoundingBox" id="filter-2">
            <feOffset dx="0" dy="4" in="SourceAlpha" result="shadowOffsetOuter1"></feOffset>
            <feGaussianBlur stdDeviation="8" in="shadowOffsetOuter1" result="shadowBlurOuter1"></feGaussianBlur>
            <feColorMatrix values="0 0 0 0 0.854901961   0 0 0 0 0.862745098   0 0 0 0 0.878431373  0 0 0 1 0" type="matrix" in="shadowBlurOuter1"></feColorMatrix>
        </filter>
        <polygon id="path-3" points="0 107.981651 61.875 107.981651 61.875 0 0 0"></polygon>
        <path d="M578.902398,146.414289 C578.902398,152.307514 574.260159,157.083333 568.534433,157.083333 L10.3688478,157.083333 C4.6408877,157.083333 0.000882579235,152.307514 0.000882579235,146.414289 L0.000882579235,10.6690439 C0.000882579235,4.77810468 4.6408877,0 10.3688478,0 L568.534433,0 C574.260159,0 578.902398,4.77810468 578.902398,10.6690439 L578.902398,146.414289 Z" id="path-5"></path>
        <filter x="-4.5%" y="-14.0%" width="109.0%" height="133.1%" filterUnits="objectBoundingBox" id="filter-6">
            <feOffset dx="0" dy="4" in="SourceAlpha" result="shadowOffsetOuter1"></feOffset>
            <feGaussianBlur stdDeviation="8" in="shadowOffsetOuter1" result="shadowBlurOuter1"></feGaussianBlur>
            <feColorMatrix values="0 0 0 0 0.854901961   0 0 0 0 0.862745098   0 0 0 0 0.878431373  0 0 0 1 0" type="matrix" in="shadowBlurOuter1"></feColorMatrix>
        </filter>
    </defs>
    <g id="Smooth-Scroll" stroke="none" stroke-width="1" fill="none" fill-rule="evenodd">
        <g id="Demo" transform="translate(-374.000000, -3406.000000)">
            <g id="Page" transform="translate(0.000000, 816.000000)">
                <g id="3" transform="translate(0.000000, 2305.000000)">
                    <g id="Image">
                        <g id="Group-23" transform="translate(390.000000, 297.000000)">
                            <g id="mouse" transform="translate(651.999050, 107.989147) rotate(-10.000000) translate(-651.999050, -107.989147) translate(620.999050, 52.989147)">
                                <g id="Fill-1">
                                    <use fill="black" fill-opacity="1" filter="url(#filter-2)" xlink:href="#path-1"></use>
                                    <use fill="#FFFFFF" fill-rule="evenodd" xlink:href="#path-1"></use>
                                </g>
                                <path d="M38.3442623,47.7359374 C38.3442623,50.9107699 35.2113828,53.4862385 31.3442623,53.4862385 C27.4789068,53.4862385 24.3442623,50.9107699 24.3442623,47.7359374 L24.3442623,13.8220625 C24.3442623,10.6488631 27.4789068,8.0733945 31.3442623,8.0733945 C35.2113828,8.0733945 38.3442623,10.6488631 38.3442623,13.8220625 L38.3442623,47.7359374 Z" id="Fill-4" fill="#ECECEC"></path>
                                <path d="M35.5020492,25.4453512 C35.5020492,27.5546644 33.6846466,29.266055 31.4463899,29.266055 C29.2046977,29.266055 27.3872951,27.5546644 27.3872951,25.4453512 L27.3872951,15.9307956 C27.3872951,13.8198648 29.2046977,12.1100917 31.4463899,12.1100917 C33.6846466,12.1100917 35.5020492,13.8198648 35.5020492,15.9307956 L35.5020492,25.4453512 Z" id="Fill-6" fill="#7FCA9C"></path>
                                <mask id="mask-4" fill="white">
                                    <use xlink:href="#path-3"></use>
                                </mask>
                                <g id="Clip-9"></g>
                                <polygon id="Fill-8" fill="#ECECEC" mask="url(#mask-4)" points="30.6661629 8.0733945 31.2088371 8.0733945 31.2088371 0 30.6661629 0"></polygon>
                            </g>
                            <g id="keyboard">
                                <g id="Fill-1">
                                    <use fill="black" fill-opacity="1" filter="url(#filter-6)" xlink:href="#path-5"></use>
                                    <use fill="#FFFFFF" fill-rule="evenodd" xlink:href="#path-5"></use>
                                </g>
                                <path d="M31.1060606,19.2592636 L31.1060606,10.3998273 C31.1060606,9.9336611 30.6866034,9.53787879 30.1461549,9.53787879 L10.4955638,9.53787879 C9.9571331,9.53787879 9.53787879,9.93382505 9.53787879,10.3998273 L9.53787879,19.2592636 C9.53787879,19.7252659 9.9571331,20.1212121 10.4955638,20.1212121 L30.1461549,20.1212121 C30.6866034,20.1212121 31.1060606,19.7254298 31.1060606,19.2592636 Z" id="Fill-4" stroke="#ECECEC" stroke-width="1.5" fill="#FFFFFF"></path>
                                <path d="M31.1060606,19.2592636 L31.1060606,10.3998273 C31.1060606,9.92574833 30.7144884,9.53787879 30.2283524,9.53787879 L11.5118899,9.53787879 C11.0277522,9.53787879 10.6363636,9.92592576 10.6363636,10.3998273 L10.6363636,19.2592636 C10.6363636,19.7331651 11.0277522,20.1212121 11.5118899,20.1212121 L30.2283524,20.1212121 C30.7144884,20.1212121 31.1060606,19.7333426 31.1060606,19.2592636 Z" id="Fill-6" stroke="#ECECEC" stroke-width="1.5" fill="#FFFFFF"></path>
                                <path d="M57.469697,19.2592636 L57.469697,10.3998273 C57.469697,9.92574833 57.0781248,9.53787879 56.5919888,9.53787879 L37.8777082,9.53787879 C37.3915722,9.53787879 37,9.92574833 37,10.3998273 L37,19.2592636 C37,19.7333426 37.3915722,20.1212121 37.8777082,20.1212121 L56.5919888,20.1212121 C57.0781248,20.1212121 57.469697,19.7333426 57.469697,19.2592636 Z" id="Fill-8" stroke="#ECECEC" stroke-width="1.5" fill="#FFFFFF"></path>
                                <path d="M82.7348485,19.2592636 L82.7348485,10.3998273 C82.7348485,9.92573148 82.3433322,9.53787879 81.8573019,9.53787879 L63.1426981,9.53787879 C62.6566678,9.53787879 62.2651515,9.92573148 62.2651515,10.3998273 L62.2651515,19.2592636 C62.2651515,19.7333594 62.6566678,20.1212121 63.1426981,20.1212121 L81.8573019,20.1212121 C82.3433322,20.1212121 82.7348485,19.7333594 82.7348485,19.2592636 Z" id="Fill-10" stroke="#ECECEC" stroke-width="1.5" fill="#FFFFFF"></path>
                                <path d="M109.098485,19.2592636 L109.098485,10.3998273 C109.098485,9.92574833 108.706913,9.53787879 108.220777,9.53787879 L89.5043142,9.53787879 C89.0201765,9.53787879 88.6287879,9.92592576 88.6287879,10.3998273 L88.6287879,19.2592636 C88.6287879,19.7331651 89.0201765,20.1212121 89.5043142,20.1212121 L108.220777,20.1212121 C108.706913,20.1212121 109.098485,19.7333426 109.098485,19.2592636 Z" id="Fill-12" stroke="#ECECEC" stroke-width="1.5" fill="#FFFFFF"></path>
                                <path d="M134.363636,19.2592636 L134.363636,10.3998273 C134.363636,9.92573148 133.97212,9.53787879 133.48609,9.53787879 L114.771486,9.53787879 C114.285456,9.53787879 113.893939,9.92573148 113.893939,10.3998273 L113.893939,19.2592636 C113.893939,19.7333594 114.285456,20.1212121 114.771486,20.1212121 L133.48609,20.1212121 C133.97212,20.1212121 134.363636,19.7333594 134.363636,19.2592636 Z" id="Fill-14" stroke="#ECECEC" stroke-width="1.5" fill="#FFFFFF"></path>
                                <path d="M160.727273,19.2592636 L160.727273,10.3998273 C160.727273,9.92574833 160.335701,9.53787879 159.849565,9.53787879 L141.133102,9.53787879 C140.64769,9.53787879 140.257576,9.92502119 140.257576,10.3998273 L140.257576,19.2592636 C140.257576,19.7340697 140.64769,20.1212121 141.133102,20.1212121 L159.849565,20.1212121 C160.335701,20.1212121 160.727273,19.7333426 160.727273,19.2592636 Z" id="Fill-16" stroke="#ECECEC" stroke-width="1.5" fill="#FFFFFF"></path>
                                <path d="M187.090909,19.2592636 L187.090909,10.3998273 C187.090909,9.92574833 186.699337,9.53787879 186.213201,9.53787879 L167.49892,9.53787879 C167.012784,9.53787879 166.621212,9.92574833 166.621212,10.3998273 L166.621212,19.2592636 C166.621212,19.7333426 167.012784,20.1212121 167.49892,20.1212121 L186.213201,20.1212121 C186.699337,20.1212121 187.090909,19.7333426 187.090909,19.2592636 Z" id="Fill-18" stroke="#ECECEC" stroke-width="1.5" fill="#FFFFFF"></path>
                                <path d="M214.55303,19.2592636 L214.55303,10.3998273 C214.55303,9.92573148 214.161514,9.53787879 213.675484,9.53787879 L194.96088,9.53787879 C194.47485,9.53787879 194.083333,9.92573148 194.083333,10.3998273 L194.083333,19.2592636 C194.083333,19.7333594 194.47485,20.1212121 194.96088,20.1212121 L213.675484,20.1212121 C214.161514,20.1212121 214.55303,19.7333594 214.55303,19.2592636 Z" id="Fill-20" stroke="#ECECEC" stroke-width="1.5" fill="#FFFFFF"></path>
                                <path d="M239.818182,19.2592636 L239.818182,10.3998273 C239.818182,9.92574833 239.42661,9.53787879 238.940474,9.53787879 L220.224011,9.53787879 C219.739873,9.53787879 219.348485,9.92592576 219.348485,10.3998273 L219.348485,19.2592636 C219.348485,19.7331651 219.739873,20.1212121 220.224011,20.1212121 L238.940474,20.1212121 C239.42661,20.1212121 239.818182,19.7333426 239.818182,19.2592636 Z" id="Fill-22" stroke="#ECECEC" stroke-width="1.5" fill="#FFFFFF"></path>
                                <path d="M266.181818,19.2592636 L266.181818,10.3998273 C266.181818,9.92574833 265.790246,9.53787879 265.30411,9.53787879 L246.589829,9.53787879 C246.103693,9.53787879 245.712121,9.92574833 245.712121,10.3998273 L245.712121,19.2592636 C245.712121,19.7333426 246.103693,20.1212121 246.589829,20.1212121 L265.30411,20.1212121 C265.790246,20.1212121 266.181818,19.7333426 266.181818,19.2592636 Z" id="Fill-24" stroke="#ECECEC" stroke-width="1.5" fill="#FFFFFF"></path>
                                <path d="M291.44697,19.2592636 L291.44697,10.3998273 C291.44697,9.92573148 291.055453,9.53787879 290.569423,9.53787879 L271.854819,9.53787879 C271.368789,9.53787879 270.977273,9.92573148 270.977273,10.3998273 L270.977273,19.2592636 C270.977273,19.7333594 271.368789,20.1212121 271.854819,20.1212121 L290.569423,20.1212121 C291.055453,20.1212121 291.44697,19.7333594 291.44697,19.2592636 Z" id="Fill-26" stroke="#ECECEC" stroke-width="1.5" fill="#FFFFFF"></path>
                                <path d="M317.810606,19.2592636 L317.810606,10.3998273 C317.810606,9.92574833 317.419034,9.53787879 316.932898,9.53787879 L298.218617,9.53787879 C297.732481,9.53787879 297.340909,9.92574833 297.340909,10.3998273 L297.340909,19.2592636 C297.340909,19.7333426 297.732481,20.1212121 298.218617,20.1212121 L316.932898,20.1212121 C317.419034,20.1212121 317.810606,19.7333426 317.810606,19.2592636 Z" id="Fill-28" stroke="#ECECEC" stroke-width="1.5" fill="#FFFFFF"></path>
                                <path d="M344.174242,19.2592636 L344.174242,10.3998273 C344.174242,9.92574833 343.78267,9.53787879 343.296534,9.53787879 L324.582254,9.53787879 C324.096118,9.53787879 323.704545,9.92574833 323.704545,10.3998273 L323.704545,19.2592636 C323.704545,19.7333426 324.096118,20.1212121 324.582254,20.1212121 L343.296534,20.1212121 C343.78267,20.1212121 344.174242,19.7333426 344.174242,19.2592636 Z" id="Fill-30" stroke="#ECECEC" stroke-width="1.5" fill="#FFFFFF"></path>
                                <path d="M369.439394,19.2592636 L369.439394,10.3998273 C369.439394,9.92592576 369.048005,9.53787879 368.563868,9.53787879 L349.847405,9.53787879 C349.361269,9.53787879 348.969697,9.92574833 348.969697,10.3998273 L348.969697,19.2592636 C348.969697,19.7333426 349.361269,20.1212121 349.847405,20.1212121 L368.563868,20.1212121 C369.048005,20.1212121 369.439394,19.7331651 369.439394,19.2592636 Z" id="Fill-32" stroke="#ECECEC" stroke-width="1.5" fill="#FFFFFF"></path>
                                <path d="M406.787879,19.2409043 L406.787879,10.4160693 C406.787879,9.94201628 406.356873,9.53787879 405.802302,9.53787879 L387.301505,9.53787879 C386.747643,9.53787879 386.318182,9.94129149 386.318182,10.4160693 L386.318182,19.2409043 C386.318182,19.7164071 386.748352,20.1212121 387.301505,20.1212121 L405.802302,20.1212121 C406.356164,20.1212121 406.787879,19.7156821 406.787879,19.2409043 Z" id="Fill-34" stroke="#ECECEC" stroke-width="1.5" fill="#FFFFFF"></path>
                                <path d="M406.787879,19.2409043 L406.787879,10.4160693 C406.787879,9.94201628 406.356873,9.53787879 405.802302,9.53787879 L387.301505,9.53787879 C386.747643,9.53787879 386.318182,9.94129149 386.318182,10.4160693 L386.318182,19.2409043 C386.318182,19.7164071 386.748352,20.1212121 387.301505,20.1212121 L405.802302,20.1212121 C406.356164,20.1212121 406.787879,19.7156821 406.787879,19.2409043 Z" id="Fill-36" stroke="#ECECEC" stroke-width="1.5" fill="#FFFFFF"></path>
                                <path d="M432.05303,19.2409043 L432.05303,10.4160693 C432.05303,9.94201628 431.622025,9.53787879 431.067454,9.53787879 L412.566656,9.53787879 C412.01413,9.53787879 411.583333,9.94218292 411.583333,10.4160693 L411.583333,19.2409043 C411.583333,19.7155146 412.014839,20.1212121 412.566656,20.1212121 L431.067454,20.1212121 C431.621315,20.1212121 432.05303,19.7156821 432.05303,19.2409043 Z" id="Fill-38" stroke="#ECECEC" stroke-width="1.5" fill="#FFFFFF"></path>
                                <path d="M457.318182,19.2409043 L457.318182,10.4160693 C457.318182,9.94112523 456.888512,9.53787879 456.332605,9.53787879 L437.831808,9.53787879 C437.279282,9.53787879 436.848485,9.94218292 436.848485,10.4160693 L436.848485,19.2409043 C436.848485,19.7155146 437.279991,20.1212121 437.831808,20.1212121 L456.332605,20.1212121 C456.887803,20.1212121 457.318182,19.7165742 457.318182,19.2409043 Z" id="Fill-40" stroke="#ECECEC" stroke-width="1.5" fill="#FFFFFF"></path>
                                <path d="M492.469697,19.2409043 L492.469697,10.4160693 C492.469697,9.94201628 492.038691,9.53787879 491.48412,9.53787879 L472.983323,9.53787879 C472.429461,9.53787879 472,9.94129149 472,10.4160693 L472,19.2409043 C472,19.7164071 472.43017,20.1212121 472.983323,20.1212121 L491.48412,20.1212121 C492.037982,20.1212121 492.469697,19.7156821 492.469697,19.2409043 Z" id="Fill-42" stroke="#ECECEC" stroke-width="1.5" fill="#FFFFFF"></path>
                                <path d="M492.469697,19.2409043 L492.469697,10.4160693 C492.469697,9.94201628 492.038691,9.53787879 491.48412,9.53787879 L472.983323,9.53787879 C472.429461,9.53787879 472,9.94129149 472,10.4160693 L472,19.2409043 C472,19.7164071 472.43017,20.1212121 472.983323,20.1212121 L491.48412,20.1212121 C492.037982,20.1212121 492.469697,19.7156821 492.469697,19.2409043 Z" id="Fill-44" stroke="#ECECEC" stroke-width="1.5" fill="#FFFFFF"></path>
                                <path d="M517.734848,19.2409043 L517.734848,10.4160693 C517.734848,9.94201628 517.303843,9.53787879 516.749272,9.53787879 L498.248474,9.53787879 C497.695948,9.53787879 497.265152,9.94218292 497.265152,10.4160693 L497.265152,19.2409043 C497.265152,19.7155146 497.696658,20.1212121 498.248474,20.1212121 L516.749272,20.1212121 C517.303133,20.1212121 517.734848,19.7156821 517.734848,19.2409043 Z" id="Fill-46" stroke="#ECECEC" stroke-width="1.5" fill="#FFFFFF"></path>
                                <path d="M543,19.2409043 L543,10.4160693 C543,9.94201628 542.568994,9.53787879 542.014423,9.53787879 L523.513626,9.53787879 C522.9611,9.53787879 522.530303,9.94218292 522.530303,10.4160693 L522.530303,19.2409043 C522.530303,19.7155146 522.961809,20.1212121 523.513626,20.1212121 L542.014423,20.1212121 C542.568285,20.1212121 543,19.7156821 543,19.2409043 Z" id="Fill-48" stroke="#ECECEC" stroke-width="1.5" fill="#FFFFFF"></path>
                                <path d="M569.363636,19.2409043 L569.363636,10.4160693 C569.363636,9.94201628 568.932631,9.53787879 568.37806,9.53787879 L549.877262,9.53787879 C549.324736,9.53787879 548.893939,9.94218292 548.893939,10.4160693 L548.893939,19.2409043 C548.893939,19.7155146 549.325445,20.1212121 549.877262,20.1212121 L568.37806,20.1212121 C568.931921,20.1212121 569.363636,19.7156821 569.363636,19.2409043 Z" id="Fill-50" stroke="#ECECEC" stroke-width="1.5" fill="#FFFFFF"></path>
                                <path d="M31.1060606,45.5163736 L31.1060606,26.9836264 C31.1060606,26.4381038 30.7118439,26.0151515 30.2545354,26.0151515 L11.4878889,26.0151515 C11.0293214,26.0151515 10.6363636,26.4371501 10.6363636,26.9836264 L10.6363636,45.5163736 C10.6363636,46.0628499 11.0293214,46.4848485 11.4878889,46.4848485 L30.2545354,46.4848485 C30.7118439,46.4848485 31.1060606,46.0618962 31.1060606,45.5163736 Z" id="Fill-52" stroke="#ECECEC" stroke-width="1.5" fill="#FFFFFF"></path>
                                <path d="M31.1060606,45.5163736 L31.1060606,26.9836264 C31.1060606,26.4378023 30.7118105,26.0151515 30.2524654,26.0151515 L11.4877439,26.0151515 C11.0291649,26.0151515 10.6363636,26.4370543 10.6363636,26.9836264 L10.6363636,45.5163736 C10.6363636,46.0629457 11.0291649,46.4848485 11.4877439,46.4848485 L30.2524654,46.4848485 C30.7118105,46.4848485 31.1060606,46.0621977 31.1060606,45.5163736 Z" id="Fill-54" stroke="#ECECEC" stroke-width="1.5" fill="#FFFFFF"></path>
                                <path d="M55.2727273,45.5163736 L55.2727273,26.9836264 C55.2727273,26.4377868 54.8785314,26.0151515 54.4192937,26.0151515 L35.6564638,26.0151515 C35.1972262,26.0151515 34.8030303,26.4377868 34.8030303,26.9836264 L34.8030303,45.5163736 C34.8030303,46.0622132 35.1972262,46.4848485 35.6564638,46.4848485 L54.4192937,46.4848485 C54.8785314,46.4848485 55.2727273,46.0622132 55.2727273,45.5163736 Z" id="Fill-56" stroke="#ECECEC" stroke-width="1.5" fill="#FFFFFF"></path>
                                <path d="M81.6363636,45.5163736 L81.6363636,26.9836264 C81.6363636,26.4378023 81.2421135,26.0151515 80.7827685,26.0151515 L62.0180469,26.0151515 C61.5607459,26.0151515 61.1666667,26.4380227 61.1666667,26.9836264 L61.1666667,45.5163736 C61.1666667,46.0619773 61.5607459,46.4848485 62.0180469,46.4848485 L80.7827685,46.4848485 C81.2421135,46.4848485 81.6363636,46.0621977 81.6363636,45.5163736 Z" id="Fill-58" stroke="#ECECEC" stroke-width="1.5" fill="#FFFFFF"></path>
                                <path d="M105.80303,45.5163736 L105.80303,26.9836264 C105.80303,26.4378023 105.40878,26.0151515 104.949435,26.0151515 L86.1847136,26.0151515 C85.7261346,26.0151515 85.3333333,26.4370543 85.3333333,26.9836264 L85.3333333,45.5163736 C85.3333333,46.0629457 85.7261346,46.4848485 86.1847136,46.4848485 L104.949435,46.4848485 C105.40878,46.4848485 105.80303,46.0621977 105.80303,45.5163736 Z" id="Fill-60" stroke="#ECECEC" stroke-width="1.5" fill="#FFFFFF"></path>
                                <path d="M131.068182,45.5163736 L131.068182,26.9836264 C131.068182,26.4377868 130.673986,26.0151515 130.214748,26.0151515 L111.451918,26.0151515 C110.992681,26.0151515 110.598485,26.4377868 110.598485,26.9836264 L110.598485,45.5163736 C110.598485,46.0622132 110.992681,46.4848485 111.451918,46.4848485 L130.214748,46.4848485 C130.673986,46.4848485 131.068182,46.0622132 131.068182,45.5163736 Z" id="Fill-62" stroke="#ECECEC" stroke-width="1.5" fill="#FFFFFF"></path>
                                <path d="M156.333333,45.5163736 L156.333333,26.9836264 C156.333333,26.4378023 155.939083,26.0151515 155.479738,26.0151515 L136.715017,26.0151515 C136.257716,26.0151515 135.863636,26.4380227 135.863636,26.9836264 L135.863636,45.5163736 C135.863636,46.0619773 136.257716,46.4848485 136.715017,46.4848485 L155.479738,46.4848485 C155.939083,46.4848485 156.333333,46.0621977 156.333333,45.5163736 Z" id="Fill-64" stroke="#ECECEC" stroke-width="1.5" fill="#FFFFFF"></path>
                                <path d="M181.598485,45.5163736 L181.598485,26.9836264 C181.598485,26.4378023 181.204235,26.0151515 180.74489,26.0151515 L161.980168,26.0151515 C161.521589,26.0151515 161.128788,26.4370543 161.128788,26.9836264 L161.128788,45.5163736 C161.128788,46.0629457 161.521589,46.4848485 161.980168,46.4848485 L180.74489,46.4848485 C181.204235,46.4848485 181.598485,46.0621977 181.598485,45.5163736 Z" id="Fill-66" stroke="#ECECEC" stroke-width="1.5" fill="#FFFFFF"></path>
                                <path d="M206.863636,45.5163736 L206.863636,26.9836264 C206.863636,26.4378023 206.469386,26.0151515 206.010041,26.0151515 L187.24532,26.0151515 C186.786741,26.0151515 186.393939,26.4370543 186.393939,26.9836264 L186.393939,45.5163736 C186.393939,46.0629457 186.786741,46.4848485 187.24532,46.4848485 L206.010041,46.4848485 C206.469386,46.4848485 206.863636,46.0621977 206.863636,45.5163736 Z" id="Fill-68" stroke="#ECECEC" stroke-width="1.5" fill="#FFFFFF"></path>
                                <path d="M232.128788,45.5163736 L232.128788,26.9836264 C232.128788,26.4377868 231.734592,26.0151515 231.275354,26.0151515 L212.512524,26.0151515 C212.053287,26.0151515 211.659091,26.4377868 211.659091,26.9836264 L211.659091,45.5163736 C211.659091,46.0622132 212.053287,46.4848485 212.512524,46.4848485 L231.275354,46.4848485 C231.734592,46.4848485 232.128788,46.0622132 232.128788,45.5163736 Z" id="Fill-70" stroke="#ECECEC" stroke-width="1.5" fill="#FFFFFF"></path>
                                <path d="M257.393939,45.5163736 L257.393939,26.9836264 C257.393939,26.4378023 256.999689,26.0151515 256.540344,26.0151515 L237.775623,26.0151515 C237.318322,26.0151515 236.924242,26.4380227 236.924242,26.9836264 L236.924242,45.5163736 C236.924242,46.0619773 237.318322,46.4848485 237.775623,46.4848485 L256.540344,46.4848485 C256.999689,46.4848485 257.393939,46.0621977 257.393939,45.5163736 Z" id="Fill-72" stroke="#ECECEC" stroke-width="1.5" fill="#FFFFFF"></path>
                                <path d="M282.659091,45.5163736 L282.659091,26.9836264 C282.659091,26.4378023 282.264841,26.0151515 281.805496,26.0151515 L263.040774,26.0151515 C262.582195,26.0151515 262.189394,26.4370543 262.189394,26.9836264 L262.189394,45.5163736 C262.189394,46.0629457 262.582195,46.4848485 263.040774,46.4848485 L281.805496,46.4848485 C282.264841,46.4848485 282.659091,46.0621977 282.659091,45.5163736 Z" id="Fill-74" stroke="#ECECEC" stroke-width="1.5" fill="#FFFFFF"></path>
                                <path d="M307.924242,45.5163736 L307.924242,26.9836264 C307.924242,26.4368343 307.531271,26.0151515 307.070647,26.0151515 L288.305926,26.0151515 C287.848625,26.0151515 287.454545,26.4380227 287.454545,26.9836264 L287.454545,45.5163736 C287.454545,46.0619773 287.848625,46.4848485 288.305926,46.4848485 L307.070647,46.4848485 C307.531271,46.4848485 307.924242,46.0631657 307.924242,45.5163736 Z" id="Fill-76" stroke="#ECECEC" stroke-width="1.5" fill="#FFFFFF"></path>
                                <path d="M333.189394,45.5163736 L333.189394,26.9836264 C333.189394,26.4377868 332.795198,26.0151515 332.33596,26.0151515 L313.57313,26.0151515 C313.113893,26.0151515 312.719697,26.4377868 312.719697,26.9836264 L312.719697,45.5163736 C312.719697,46.0622132 313.113893,46.4848485 313.57313,46.4848485 L332.33596,46.4848485 C332.795198,46.4848485 333.189394,46.0622132 333.189394,45.5163736 Z" id="Fill-78" stroke="#ECECEC" stroke-width="1.5" fill="#FFFFFF"></path>
                                <path d="M369.439394,45.5163736 L369.439394,26.9836264 C369.439394,26.4457404 369.016044,26.0151515 368.498291,26.0151515 L338.925951,26.0151515 C338.409483,26.0151515 337.984848,26.4466595 337.984848,26.9836264 L337.984848,45.5163736 C337.984848,46.0533405 338.409483,46.4848485 338.925951,46.4848485 L368.498291,46.4848485 C369.016044,46.4848485 369.439394,46.0542596 369.439394,45.5163736 Z" id="Fill-80" stroke="#ECECEC" stroke-width="1.5" fill="#FFFFFF"></path>
                                <path d="M369.439394,69.6664838 L369.439394,51.1668496 C369.439394,50.6177288 369.017307,50.1818182 368.507465,50.1818182 L351.000111,50.1818182 C350.491543,50.1818182 350.068182,50.6186529 350.068182,51.1668496 L350.068182,69.6664838 C350.068182,70.2159849 350.49065,70.6515152 351.000111,70.6515152 L368.507465,70.6515152 C369.0182,70.6515152 369.439394,70.2169085 369.439394,69.6664838 Z" id="Fill-82" stroke="#ECECEC" stroke-width="1.5" fill="#FFFFFF"></path>
                                <path d="M369.439394,69.6664838 L369.439394,51.1668496 C369.439394,50.6177288 369.017307,50.1818182 368.507465,50.1818182 L351.000111,50.1818182 C350.491543,50.1818182 350.068182,50.6186529 350.068182,51.1668496 L350.068182,69.6664838 C350.068182,70.2159849 350.49065,70.6515152 351.000111,70.6515152 L368.507465,70.6515152 C369.0182,70.6515152 369.439394,70.2169085 369.439394,69.6664838 Z" id="Fill-84" stroke="#ECECEC" stroke-width="1.5" fill="#FFFFFF"></path>
                                <path d="M345.272727,69.6664838 L345.272727,51.1668496 C345.272727,50.6177288 344.850641,50.1818182 344.340798,50.1818182 L326.833444,50.1818182 C326.324876,50.1818182 325.901515,50.6186529 325.901515,51.1668496 L325.901515,69.6664838 C325.901515,70.2159849 326.323983,70.6515152 326.833444,70.6515152 L344.340798,70.6515152 C344.851533,70.6515152 345.272727,70.2169085 345.272727,69.6664838 Z" id="Fill-86" stroke="#ECECEC" stroke-width="1.5" fill="#FFFFFF"></path>
                                <path d="M321.106061,69.6664838 L321.106061,51.1668496 C321.106061,50.6177288 320.683974,50.1818182 320.174131,50.1818182 L302.666778,50.1818182 C302.15821,50.1818182 301.734848,50.6186529 301.734848,51.1668496 L301.734848,69.6664838 C301.734848,70.2159849 302.157317,70.6515152 302.666778,70.6515152 L320.174131,70.6515152 C320.684866,70.6515152 321.106061,70.2169085 321.106061,69.6664838 Z" id="Fill-88" stroke="#ECECEC" stroke-width="1.5" fill="#FFFFFF"></path>
                                <path d="M295.840909,69.6664838 L295.840909,51.1668496 C295.840909,50.6188567 295.41773,50.1818182 294.911164,50.1818182 L277.401626,50.1818182 C276.893058,50.1818182 276.469697,50.6186529 276.469697,51.1668496 L276.469697,69.6664838 C276.469697,70.2159849 276.892165,70.6515152 277.401626,70.6515152 L294.911164,70.6515152 C295.418623,70.6515152 295.840909,70.2157816 295.840909,69.6664838 Z" id="Fill-90" stroke="#ECECEC" stroke-width="1.5" fill="#FFFFFF"></path>
                                <path d="M270.575758,69.6664838 L270.575758,51.1668496 C270.575758,50.6177288 270.153671,50.1818182 269.643828,50.1818182 L252.136475,50.1818182 C251.627906,50.1818182 251.204545,50.6186529 251.204545,51.1668496 L251.204545,69.6664838 C251.204545,70.2159849 251.627014,70.6515152 252.136475,70.6515152 L269.643828,70.6515152 C270.154563,70.6515152 270.575758,70.2169085 270.575758,69.6664838 Z" id="Fill-92" stroke="#ECECEC" stroke-width="1.5" fill="#FFFFFF"></path>
                                <path d="M245.310606,69.6664838 L245.310606,51.1668496 C245.310606,50.6177288 244.88852,50.1818182 244.378677,50.1818182 L226.871323,50.1818182 C226.362755,50.1818182 225.939394,50.6186529 225.939394,51.1668496 L225.939394,69.6664838 C225.939394,70.2159849 226.361862,70.6515152 226.871323,70.6515152 L244.378677,70.6515152 C244.889412,70.6515152 245.310606,70.2169085 245.310606,69.6664838 Z" id="Fill-94" stroke="#ECECEC" stroke-width="1.5" fill="#FFFFFF"></path>
                                <path d="M221.143939,69.6664838 L221.143939,51.1668496 C221.143939,50.6177288 220.721853,50.1818182 220.21201,50.1818182 L202.704656,50.1818182 C202.196088,50.1818182 201.772727,50.6186529 201.772727,51.1668496 L201.772727,69.6664838 C201.772727,70.2159849 202.195196,70.6515152 202.704656,70.6515152 L220.21201,70.6515152 C220.722745,70.6515152 221.143939,70.2169085 221.143939,69.6664838 Z" id="Fill-96" stroke="#ECECEC" stroke-width="1.5" fill="#FFFFFF"></path>
                                <path d="M195.878788,69.6664838 L195.878788,51.1668496 C195.878788,50.6186529 195.455427,50.1818182 194.946859,50.1818182 L177.439505,50.1818182 C176.930937,50.1818182 176.507576,50.6186529 176.507576,51.1668496 L176.507576,69.6664838 C176.507576,70.2159849 176.930044,70.6515152 177.439505,70.6515152 L194.946859,70.6515152 C195.45632,70.6515152 195.878788,70.2159849 195.878788,69.6664838 Z" id="Fill-98" stroke="#ECECEC" stroke-width="1.5" fill="#FFFFFF"></path>
                                <path d="M170.613636,69.6664838 L170.613636,51.1668496 C170.613636,50.6186529 170.190275,50.1818182 169.681707,50.1818182 L152.172169,50.1818182 C151.665603,50.1818182 151.242424,50.6188567 151.242424,51.1668496 L151.242424,69.6664838 C151.242424,70.2157816 151.664711,70.6515152 152.172169,70.6515152 L169.681707,70.6515152 C170.191168,70.6515152 170.613636,70.2159849 170.613636,69.6664838 Z" id="Fill-100" stroke="#ECECEC" stroke-width="1.5" fill="#FFFFFF"></path>
                                <path d="M145.348485,69.6664838 L145.348485,51.1668496 C145.348485,50.6186529 144.925124,50.1818182 144.416556,50.1818182 L126.907018,50.1818182 C126.400451,50.1818182 125.977273,50.6188567 125.977273,51.1668496 L125.977273,69.6664838 C125.977273,70.2157816 126.399559,70.6515152 126.907018,70.6515152 L144.416556,70.6515152 C144.926017,70.6515152 145.348485,70.2159849 145.348485,69.6664838 Z" id="Fill-102" stroke="#ECECEC" stroke-width="1.5" fill="#FFFFFF"></path>
                                <path d="M121.181818,69.6664838 L121.181818,51.1668496 C121.181818,50.6179323 120.759914,50.1818182 120.252073,50.1818182 L102.742535,50.1818182 C102.233967,50.1818182 101.810606,50.6186529 101.810606,51.1668496 L101.810606,69.6664838 C101.810606,70.2159849 102.233074,70.6515152 102.742535,70.6515152 L120.252073,70.6515152 C120.760805,70.6515152 121.181818,70.2167055 121.181818,69.6664838 Z" id="Fill-104" stroke="#ECECEC" stroke-width="1.5" fill="#FFFFFF"></path>
                                <path d="M97.0151515,69.6664838 L97.0151515,51.1668496 C97.0151515,50.6177288 96.593065,50.1818182 96.0832223,50.1818182 L78.5758686,50.1818182 C78.0673004,50.1818182 77.6439394,50.6186529 77.6439394,51.1668496 L77.6439394,69.6664838 C77.6439394,70.2159849 78.0664077,70.6515152 78.5758686,70.6515152 L96.0832223,70.6515152 C96.5939572,70.6515152 97.0151515,70.2169085 97.0151515,69.6664838 Z" id="Fill-106" stroke="#ECECEC" stroke-width="1.5" fill="#FFFFFF"></path>
                                <path d="M71.75,69.6664838 L71.75,51.1668496 C71.75,50.6177288 71.3279135,50.1818182 70.8180708,50.1818182 L53.3107171,50.1818182 C52.8021489,50.1818182 52.3787879,50.6186529 52.3787879,51.1668496 L52.3787879,69.6664838 C52.3787879,70.2159849 52.8012562,70.6515152 53.3107171,70.6515152 L70.8180708,70.6515152 C71.3288057,70.6515152 71.75,70.2169085 71.75,69.6664838 Z" id="Fill-108" stroke="#ECECEC" stroke-width="1.5" fill="#FFFFFF"></path>
                                <path d="M43.1893939,68.5561626 L43.1893939,50.080201 C43.1893939,49.5252754 42.7605327,49.0833333 42.244231,49.0833333 L10.4808402,49.0833333 C9.96526948,49.0833333 9.53787879,49.5245514 9.53787879,50.080201 L9.53787879,68.5561626 C9.53787879,69.1118122 9.96526948,69.5530303 10.4808402,69.5530303 L42.244231,69.5530303 C42.7605327,69.5530303 43.1893939,69.1110883 43.1893939,68.5561626 Z" id="Fill-110" stroke="#ECECEC" stroke-width="1.5" fill="#FFFFFF"></path>
                                <path d="M49.780303,94.9332319 L49.780303,76.4326733 C49.780303,75.8818253 49.3587799,75.4469697 48.8474599,75.4469697 L11.5692067,75.4469697 C11.0591615,75.4469697 10.6363636,75.8827492 10.6363636,76.4326733 L10.6363636,94.9332319 C10.6363636,95.4810916 11.0593453,95.9166667 11.5692067,95.9166667 L48.8474599,95.9166667 C49.3585966,95.9166667 49.780303,95.4820149 49.780303,94.9332319 Z" id="Fill-112" stroke="#ECECEC" stroke-width="1.5" fill="#FFFFFF"></path>
                                <path d="M75.0454545,94.919799 L75.0454545,76.4438374 C75.0454545,75.8875998 74.6192589,75.4469697 74.1042952,75.4469697 L55.5147206,75.4469697 C55.0017697,75.4469697 54.5757576,75.8878058 54.5757576,76.4438374 L54.5757576,94.919799 C54.5757576,95.4758306 55.0017697,95.9166667 55.5147206,95.9166667 L74.1042952,95.9166667 C74.6192589,95.9166667 75.0454545,95.4760365 75.0454545,94.919799 Z" id="Fill-114" stroke="#ECECEC" stroke-width="1.5" fill="#FFFFFF"></path>
                                <path d="M75.0454545,94.919799 L75.0454545,76.4438374 C75.0454545,75.8875998 74.6192589,75.4469697 74.1042952,75.4469697 L55.5147206,75.4469697 C55.0017697,75.4469697 54.5757576,75.8878058 54.5757576,76.4438374 L54.5757576,94.919799 C54.5757576,95.4758306 55.0017697,95.9166667 55.5147206,95.9166667 L74.1042952,95.9166667 C74.6192589,95.9166667 75.0454545,95.4760365 75.0454545,94.919799 Z" id="Fill-116" stroke="#ECECEC" stroke-width="1.5" fill="#FFFFFF"></path>
                                <path d="M100.310606,94.919799 L100.310606,76.4438374 C100.310606,75.8875998 99.8844104,75.4469697 99.3694467,75.4469697 L80.7798721,75.4469697 C80.2669212,75.4469697 79.8409091,75.8878058 79.8409091,76.4438374 L79.8409091,94.919799 C79.8409091,95.4758306 80.2669212,95.9166667 80.7798721,95.9166667 L99.3694467,95.9166667 C99.8844104,95.9166667 100.310606,95.4760365 100.310606,94.919799 Z" id="Fill-118" stroke="#ECECEC" stroke-width="1.5" fill="#FFFFFF"></path>
                                <path d="M125.575758,94.919799 L125.575758,76.4438374 C125.575758,75.8875998 125.149562,75.4469697 124.634598,75.4469697 L106.045024,75.4469697 C105.532073,75.4469697 105.106061,75.8878058 105.106061,76.4438374 L105.106061,94.919799 C105.106061,95.4758306 105.532073,95.9166667 106.045024,95.9166667 L124.634598,95.9166667 C125.149562,95.9166667 125.575758,95.4760365 125.575758,94.919799 Z" id="Fill-120" stroke="#ECECEC" stroke-width="1.5" fill="#FFFFFF"></path>
                                <path d="M149.742424,94.919799 L149.742424,76.4438374 C149.742424,75.8885127 149.315005,75.4469697 148.801434,75.4469697 L130.213718,75.4469697 C129.700147,75.4469697 129.272727,75.8885127 129.272727,76.4438374 L129.272727,94.919799 C129.272727,95.4751237 129.700147,95.9166667 130.213718,95.9166667 L148.801434,95.9166667 C149.315005,95.9166667 149.742424,95.4751237 149.742424,94.919799 Z" id="Fill-122" stroke="#ECECEC" stroke-width="1.5" fill="#FFFFFF"></path>
                                <path d="M173.909091,94.919799 L173.909091,76.4438374 C173.909091,75.8885127 173.481672,75.4469697 172.968101,75.4469697 L154.380384,75.4469697 C153.866813,75.4469697 153.439394,75.8885127 153.439394,76.4438374 L153.439394,94.919799 C153.439394,95.4751237 153.866813,95.9166667 154.380384,95.9166667 L172.968101,95.9166667 C173.481672,95.9166667 173.909091,95.4751237 173.909091,94.919799 Z" id="Fill-124" stroke="#ECECEC" stroke-width="1.5" fill="#FFFFFF"></path>
                                <path d="M200.272727,94.919799 L200.272727,76.4438374 C200.272727,75.8885127 199.845308,75.4469697 199.331737,75.4469697 L180.744021,75.4469697 C180.23045,75.4469697 179.80303,75.8885127 179.80303,76.4438374 L179.80303,94.919799 C179.80303,95.4751237 180.23045,95.9166667 180.744021,95.9166667 L199.331737,95.9166667 C199.845308,95.9166667 200.272727,95.4751237 200.272727,94.919799 Z" id="Fill-126" stroke="#ECECEC" stroke-width="1.5" fill="#FFFFFF"></path>
                                <path d="M224.439394,94.919799 L224.439394,76.4438374 C224.439394,75.8885127 224.011975,75.4469697 223.498404,75.4469697 L204.910687,75.4469697 C204.397116,75.4469697 203.969697,75.8885127 203.969697,76.4438374 L203.969697,94.919799 C203.969697,95.4751237 204.397116,95.9166667 204.910687,95.9166667 L223.498404,95.9166667 C224.011975,95.9166667 224.439394,95.4751237 224.439394,94.919799 Z" id="Fill-128" stroke="#ECECEC" stroke-width="1.5" fill="#FFFFFF"></path>
                                <path d="M249.704545,94.919799 L249.704545,76.4438374 C249.704545,75.8875998 249.27835,75.4469697 248.763386,75.4469697 L230.173811,75.4469697 C229.660861,75.4469697 229.234848,75.8878058 229.234848,76.4438374 L229.234848,94.919799 C229.234848,95.4758306 229.660861,95.9166667 230.173811,95.9166667 L248.763386,95.9166667 C249.27835,95.9166667 249.704545,95.4760365 249.704545,94.919799 Z" id="Fill-130" stroke="#ECECEC" stroke-width="1.5" fill="#FFFFFF"></path>
                                <path d="M273.871212,94.919799 L273.871212,76.4438374 C273.871212,75.8875998 273.445016,75.4469697 272.930053,75.4469697 L254.340478,75.4469697 C253.827527,75.4469697 253.401515,75.8878058 253.401515,76.4438374 L253.401515,94.919799 C253.401515,95.4758306 253.827527,95.9166667 254.340478,95.9166667 L272.930053,95.9166667 C273.445016,95.9166667 273.871212,95.4760365 273.871212,94.919799 Z" id="Fill-132" stroke="#ECECEC" stroke-width="1.5" fill="#FFFFFF"></path>
                                <path d="M300.234848,94.919799 L300.234848,76.4438374 C300.234848,75.8885289 299.807371,75.4469697 299.293689,75.4469697 L280.704115,75.4469697 C280.191164,75.4469697 279.765152,75.8878058 279.765152,76.4438374 L279.765152,94.919799 C279.765152,95.4758306 280.191164,95.9166667 280.704115,95.9166667 L299.293689,95.9166667 C299.807371,95.9166667 300.234848,95.4751075 300.234848,94.919799 Z" id="Fill-134" stroke="#ECECEC" stroke-width="1.5" fill="#FFFFFF"></path>
                                <path d="M324.401515,94.919799 L324.401515,76.4438374 C324.401515,75.8885127 323.974096,75.4469697 323.460525,75.4469697 L304.872808,75.4469697 C304.359237,75.4469697 303.931818,75.8885127 303.931818,76.4438374 L303.931818,94.919799 C303.931818,95.4751237 304.359237,95.9166667 304.872808,95.9166667 L323.460525,95.9166667 C323.974096,95.9166667 324.401515,95.4751237 324.401515,94.919799 Z" id="Fill-136" stroke="#ECECEC" stroke-width="1.5" fill="#FFFFFF"></path>
                                <path d="M370.537879,94.9081774 L370.537879,76.455459 C370.537879,75.8920609 370.109344,75.4469697 369.593281,75.4469697 L332.338537,75.4469697 C331.823759,75.4469697 331.393939,75.8929943 331.393939,76.455459 L331.393939,94.9081774 C331.393939,95.470642 331.823759,95.9166667 332.338537,95.9166667 L369.593281,95.9166667 C370.109344,95.9166667 370.537879,95.4715755 370.537879,94.9081774 Z" id="Fill-138" stroke="#ECECEC" stroke-width="1.5" fill="#FFFFFF"></path>
                                <path d="M62.9621212,119.09204 L62.9621212,100.602668 C62.9621212,100.054863 62.5244362,99.6136364 61.9879013,99.6136364 L10.5098595,99.6136364 C9.9740565,99.6136364 9.53787879,100.054133 9.53787879,100.602668 L9.53787879,119.09204 C9.53787879,119.641305 9.97478823,120.083333 10.5098595,120.083333 L61.9879013,120.083333 C62.5237043,120.083333 62.9621212,119.640575 62.9621212,119.09204 Z" id="Fill-140" stroke="#ECECEC" stroke-width="1.5" fill="#FFFFFF"></path>
                                <path d="M87.1287879,118.012543 L87.1287879,100.585942 C87.1287879,100.046152 86.7049928,99.6136364 86.1912069,99.6136364 L68.6951567,99.6136364 C68.1813709,99.6136364 67.7575758,100.046152 67.7575758,100.585942 L67.7575758,118.012543 C67.7575758,118.552333 68.1813709,118.984848 68.6951567,118.984848 L86.1912069,118.984848 C86.7049928,118.984848 87.1287879,118.552333 87.1287879,118.012543 Z" id="Fill-142" stroke="#ECECEC" stroke-width="1.5" fill="#FFFFFF"></path>
                                <path d="M87.1287879,118.012543 L87.1287879,100.585942 C87.1287879,100.046152 86.7049928,99.6136364 86.1912069,99.6136364 L68.6951567,99.6136364 C68.1813709,99.6136364 67.7575758,100.046152 67.7575758,100.585942 L67.7575758,118.012543 C67.7575758,118.552333 68.1813709,118.984848 68.6951567,118.984848 L86.1912069,118.984848 C86.7049928,118.984848 87.1287879,118.552333 87.1287879,118.012543 Z" id="Fill-144" stroke="#ECECEC" stroke-width="1.5" fill="#FFFFFF"></path>
                                <path d="M111.295455,118.012543 L111.295455,100.585942 C111.295455,100.045249 110.872879,99.6136364 110.357696,99.6136364 L92.8598087,99.6136364 C92.3466331,99.6136364 91.9242424,100.045448 91.9242424,100.585942 L91.9242424,118.012543 C91.9242424,118.553037 92.3466331,118.984848 92.8598087,118.984848 L110.357696,118.984848 C110.872879,118.984848 111.295455,118.553236 111.295455,118.012543 Z" id="Fill-146" stroke="#ECECEC" stroke-width="1.5" fill="#FFFFFF"></path>
                                <path d="M137.659091,118.012543 L137.659091,100.585942 C137.659091,100.046152 137.235296,99.6136364 136.72151,99.6136364 L119.22546,99.6136364 C118.711674,99.6136364 118.287879,100.046152 118.287879,100.585942 L118.287879,118.012543 C118.287879,118.552333 118.711674,118.984848 119.22546,118.984848 L136.72151,118.984848 C137.235296,118.984848 137.659091,118.552333 137.659091,118.012543 Z" id="Fill-148" stroke="#ECECEC" stroke-width="1.5" fill="#FFFFFF"></path>
                                <path d="M161.825758,118.012543 L161.825758,100.585942 C161.825758,100.045249 161.403182,99.6136364 160.887999,99.6136364 L143.390112,99.6136364 C142.876936,99.6136364 142.454545,100.045448 142.454545,100.585942 L142.454545,118.012543 C142.454545,118.553037 142.876936,118.984848 143.390112,118.984848 L160.887999,118.984848 C161.403182,118.984848 161.825758,118.553236 161.825758,118.012543 Z" id="Fill-150" stroke="#ECECEC" stroke-width="1.5" fill="#FFFFFF"></path>
                                <path d="M187.090909,118.012543 L187.090909,100.585942 C187.090909,100.046152 186.667114,99.6136364 186.153328,99.6136364 L168.657278,99.6136364 C168.143492,99.6136364 167.719697,100.046152 167.719697,100.585942 L167.719697,118.012543 C167.719697,118.552333 168.143492,118.984848 168.657278,118.984848 L186.153328,118.984848 C186.667114,118.984848 187.090909,118.552333 187.090909,118.012543 Z" id="Fill-152" stroke="#ECECEC" stroke-width="1.5" fill="#FFFFFF"></path>
                                <path d="M211.257576,118.012543 L211.257576,100.585942 C211.257576,100.045249 210.835,99.6136364 210.319818,99.6136364 L192.82193,99.6136364 C192.308754,99.6136364 191.886364,100.045448 191.886364,100.585942 L191.886364,118.012543 C191.886364,118.553037 192.308754,118.984848 192.82193,118.984848 L210.319818,118.984848 C210.835,118.984848 211.257576,118.553236 211.257576,118.012543 Z" id="Fill-154" stroke="#ECECEC" stroke-width="1.5" fill="#FFFFFF"></path>
                                <path d="M236.522727,118.012543 L236.522727,100.585942 C236.522727,100.046152 236.098932,99.6136364 235.585146,99.6136364 L218.089096,99.6136364 C217.57531,99.6136364 217.151515,100.046152 217.151515,100.585942 L217.151515,118.012543 C217.151515,118.552333 217.57531,118.984848 218.089096,118.984848 L235.585146,118.984848 C236.098932,118.984848 236.522727,118.552333 236.522727,118.012543 Z" id="Fill-156" stroke="#ECECEC" stroke-width="1.5" fill="#FFFFFF"></path>
                                <path d="M260.689394,118.012543 L260.689394,100.585942 C260.689394,100.045249 260.266818,99.6136364 259.751636,99.6136364 L242.253748,99.6136364 C241.740572,99.6136364 241.318182,100.045448 241.318182,100.585942 L241.318182,118.012543 C241.318182,118.553037 241.740572,118.984848 242.253748,118.984848 L259.751636,118.984848 C260.266818,118.984848 260.689394,118.553236 260.689394,118.012543 Z" id="Fill-158" stroke="#ECECEC" stroke-width="1.5" fill="#FFFFFF"></path>
                                <path d="M287.05303,118.012543 L287.05303,100.585942 C287.05303,100.046152 286.629235,99.6136364 286.115449,99.6136364 L268.619399,99.6136364 C268.105613,99.6136364 267.681818,100.046152 267.681818,100.585942 L267.681818,118.012543 C267.681818,118.552333 268.105613,118.984848 268.619399,118.984848 L286.115449,118.984848 C286.629235,118.984848 287.05303,118.552333 287.05303,118.012543 Z" id="Fill-160" stroke="#ECECEC" stroke-width="1.5" fill="#FFFFFF"></path>
                                <path d="M311.219697,118.012543 L311.219697,100.585942 C311.219697,100.046169 310.79584,99.6136364 310.281939,99.6136364 L292.784051,99.6136364 C292.270876,99.6136364 291.848485,100.045448 291.848485,100.585942 L291.848485,118.012543 C291.848485,118.553037 292.270876,118.984848 292.784051,118.984848 L310.281939,118.984848 C310.79584,118.984848 311.219697,118.552316 311.219697,118.012543 Z" id="Fill-162" stroke="#ECECEC" stroke-width="1.5" fill="#FFFFFF"></path>
                                <path d="M43.1893939,146.656098 L43.1893939,125.766015 C43.1893939,125.28412 42.7673501,124.878788 42.2339774,124.878788 L10.4910805,124.878788 C9.95841707,124.878788 9.53787879,125.2834 9.53787879,125.766015 L9.53787879,146.656098 C9.53787879,147.140671 9.95821878,147.545455 10.4910805,147.545455 L42.2339774,147.545455 C42.7675493,147.545455 43.1893939,147.13995 43.1893939,146.656098 Z" id="Fill-164" stroke="#ECECEC" stroke-width="1.5" fill="#FFFFFF"></path>
                                <path d="M370.537879,118.024275 L370.537879,100.574209 C370.537879,100.04304 370.109673,99.6136364 369.580545,99.6136364 L316.972485,99.6136364 C316.444658,99.6136364 316.015152,100.043958 316.015152,100.574209 L316.015152,118.024275 C316.015152,118.554527 316.444658,118.984848 316.972485,118.984848 L369.580545,118.984848 C370.109673,118.984848 370.537879,118.555445 370.537879,118.024275 Z" id="Fill-166" stroke="#ECECEC" stroke-width="1.5" fill="#FFFFFF"></path>
                                <path d="M430.954545,122.406482 L430.954545,104.979881 C430.954545,104.439188 430.53197,104.007576 430.016787,104.007576 L412.5189,104.007576 C412.005724,104.007576 411.583333,104.439387 411.583333,104.979881 L411.583333,122.406482 C411.583333,122.946977 412.005724,123.378788 412.5189,123.378788 L430.016787,123.378788 C430.53197,123.378788 430.954545,122.947175 430.954545,122.406482 Z" id="Fill-168" stroke="#ECECEC" stroke-width="1.5" fill="#FFFFFF"></path>
                                <polygon id="up" stroke="#96BFF4" stroke-width="1.5" fill="#96BFF4" stroke-linejoin="round" points="421.268939 110.94697 424.015152 116.439394 418.522727 116.439394"></polygon>
                                <path d="M406.787879,147.671634 L406.787879,130.242796 C406.787879,129.705061 406.363837,129.272727 405.850121,129.272727 L388.352233,129.272727 C387.839242,129.272727 387.416667,129.70434 387.416667,130.242796 L387.416667,147.671634 C387.416667,148.212128 387.839057,148.643939 388.352233,148.643939 L405.850121,148.643939 C406.364022,148.643939 406.787879,148.211407 406.787879,147.671634 Z" id="Fill-170" stroke="#ECECEC" stroke-width="1.5" fill="#FFFFFF"></path>
                                <path d="M406.787879,147.671634 L406.787879,130.242796 C406.787879,129.705061 406.363837,129.272727 405.850121,129.272727 L388.352233,129.272727 C387.839242,129.272727 387.416667,129.70434 387.416667,130.242796 L387.416667,147.671634 C387.416667,148.212128 387.839057,148.643939 388.352233,148.643939 L405.850121,148.643939 C406.364022,148.643939 406.787879,148.211407 406.787879,147.671634 Z" id="Fill-172" stroke="#ECECEC" stroke-width="1.5" fill="#FFFFFF"></path>
                                <polygon id="left" stroke="#96BFF4" stroke-width="1.5" fill="#96BFF4" stroke-linejoin="round" transform="translate(397.102273, 138.958333) rotate(-90.000000) translate(-397.102273, -138.958333) " points="397.102273 136.212121 399.848485 141.704545 394.356061 141.704545"></polygon>
                                <path d="M430.954545,147.671634 L430.954545,130.242796 C430.954545,129.704141 430.531785,129.272727 430.016787,129.272727 L412.5189,129.272727 C412.005909,129.272727 411.583333,129.70434 411.583333,130.242796 L411.583333,147.671634 C411.583333,148.212128 412.005724,148.643939 412.5189,148.643939 L430.016787,148.643939 C430.53197,148.643939 430.954545,148.212327 430.954545,147.671634 Z" id="Fill-174" stroke="#ECECEC" stroke-width="1.5" fill="#FFFFFF"></path>
                                <polygon id="down" stroke="#96BFF4" stroke-width="1.5" fill="#96BFF4" stroke-linejoin="round" transform="translate(421.268939, 138.958333) rotate(180.000000) translate(-421.268939, -138.958333) " points="421.268939 136.212121 424.015152 141.704545 418.522727 141.704545"></polygon>
                                <path d="M457.318182,147.671634 L457.318182,130.242796 C457.318182,129.705061 456.89414,129.272727 456.380424,129.272727 L438.880344,129.272727 C438.368079,129.272727 437.94697,129.703617 437.94697,130.242796 L437.94697,147.671634 C437.94697,148.212851 438.367896,148.643939 438.880344,148.643939 L456.380424,148.643939 C456.894325,148.643939 457.318182,148.211407 457.318182,147.671634 Z" id="Fill-176" stroke="#ECECEC" stroke-width="1.5" fill="#FFFFFF"></path>
                                <polygon id="right" stroke="#96BFF4" stroke-width="1.5" fill="#96BFF4" stroke-linejoin="round" transform="translate(447.632576, 138.958333) rotate(90.000000) translate(-447.632576, -138.958333) " points="447.632576 136.212121 450.378788 141.704545 444.886364 141.704545"></polygon>
                                <path d="M516.636364,147.635298 L516.636364,124.786661 C516.636364,124.225275 516.20562,123.780303 515.687009,123.780303 L472.947147,123.780303 C472.42927,123.780303 472,124.224549 472,124.786661 L472,147.635298 C472,148.198134 472.430003,148.643939 472.947147,148.643939 L515.687009,148.643939 C516.204887,148.643939 516.636364,148.197409 516.636364,147.635298 Z" id="Fill-178" stroke="#ECECEC" stroke-width="1.5" fill="#FFFFFF"></path>
                                <path d="M541.901515,146.637401 L541.901515,125.786841 C541.901515,125.288315 541.486091,124.878788 540.969586,124.878788 L523.462232,124.878788 C522.945727,124.878788 522.530303,125.288315 522.530303,125.786841 L522.530303,146.637401 C522.530303,147.135928 522.945727,147.545455 523.462232,147.545455 L540.969586,147.545455 C541.486091,147.545455 541.901515,147.135928 541.901515,146.637401 Z" id="Fill-180" stroke="#ECECEC" stroke-width="1.5" fill="#FFFFFF"></path>
                                <path d="M569.363636,147.695741 L569.363636,100.561835 C569.363636,100.041578 568.927288,99.6136364 568.382567,99.6136364 L548.776524,99.6136364 C548.231803,99.6136364 547.795455,100.041578 547.795455,100.561835 L547.795455,147.695741 C547.795455,148.215997 548.231803,148.643939 548.776524,148.643939 L568.382567,148.643939 C568.927288,148.643939 569.363636,148.215997 569.363636,147.695741 Z" id="Fill-182" stroke="#ECECEC" stroke-width="1.5" fill="#FFFFFF"></path>
                                <path d="M76.1439394,146.665928 L76.1439394,125.756173 C76.1439394,125.280533 75.7186843,124.878788 75.1705896,124.878788 L50.0566831,124.878788 C49.5085884,124.878788 49.0833333,125.280533 49.0833333,125.756173 L49.0833333,146.665928 C49.0833333,147.1423 49.5093054,147.545455 50.0566831,147.545455 L75.1705896,147.545455 C75.7179673,147.545455 76.1439394,147.1423 76.1439394,146.665928 Z" id="Fill-184" stroke="#ECECEC" stroke-width="1.5" fill="#FFFFFF"></path>
                                <path d="M111.295455,146.656098 L111.295455,125.766015 C111.295455,125.275402 110.903053,124.878788 110.424954,124.878788 L80.7114093,124.878788 C80.2320371,124.878788 79.8409091,125.274483 79.8409091,125.766015 L79.8409091,146.656098 C79.8409091,147.149579 80.2318641,147.545455 80.7114093,147.545455 L110.424954,147.545455 C110.903226,147.545455 111.295455,147.14866 111.295455,146.656098 Z" id="Fill-186" stroke="#ECECEC" stroke-width="1.5" fill="#FFFFFF"></path>
                                <path d="M261.439394,146.646803 C261.439394,147.556773 260.681259,148.295455 259.742405,148.295455 L118.134179,148.295455 C117.197529,148.295455 116.439394,147.556773 116.439394,146.646803 L116.439394,125.77744 C116.439394,124.86747 117.197529,124.128788 118.134179,124.128788 L259.742405,124.128788 C260.681259,124.128788 261.439394,124.86747 261.439394,125.77744 L261.439394,146.646803 Z" id="Fill-188" stroke="#96BFF4" stroke-width="1.5" fill="#FFFFFF"></path>
                                <path d="M303.530303,146.608263 L303.530303,125.81598 C303.530303,125.299754 303.105199,124.878788 302.575095,124.878788 L268.637026,124.878788 C268.108223,124.878788 267.681818,125.300663 267.681818,125.81598 L267.681818,146.608263 C267.681818,147.123579 268.108223,147.545455 268.637026,147.545455 L302.575095,147.545455 C303.105199,147.545455 303.530303,147.124489 303.530303,146.608263 Z" id="Fill-190" stroke="#ECECEC" stroke-width="1.5" fill="#FFFFFF"></path>
                                <path d="M334.287879,146.637401 L334.287879,125.786841 C334.287879,125.293397 333.85477,124.878788 333.305842,124.878788 L308.20706,124.878788 C307.658847,124.878788 307.227273,125.29267 307.227273,125.786841 L307.227273,146.637401 C307.227273,147.131572 307.658847,147.545455 308.20706,147.545455 L333.305842,147.545455 C333.85477,147.545455 334.287879,147.130846 334.287879,146.637401 Z" id="Fill-192" stroke="#ECECEC" stroke-width="1.5" fill="#FFFFFF"></path>
                                <path d="M369.439394,146.66529 L369.439394,125.758953 C369.439394,125.278197 369.028586,124.878788 368.512706,124.878788 L338.911537,124.878788 C338.395656,124.878788 337.984848,125.278197 337.984848,125.758953 L337.984848,146.66529 C337.984848,147.146046 338.395656,147.545455 338.911537,147.545455 L368.512706,147.545455 C369.028586,147.545455 369.439394,147.146046 369.439394,146.66529 Z" id="Fill-194" stroke="#ECECEC" stroke-width="1.5" fill="#FFFFFF"></path>
                                <path d="M406.787879,45.5163736 L406.787879,26.9836264 C406.787879,26.4510027 406.34769,26.0151515 405.802302,26.0151515 L387.301505,26.0151515 C386.756844,26.0151515 386.318182,26.4502722 386.318182,26.9836264 L386.318182,45.5163736 C386.318182,46.0497278 386.756844,46.4848485 387.301505,46.4848485 L405.802302,46.4848485 C406.34769,46.4848485 406.787879,46.0489973 406.787879,45.5163736 Z" id="Fill-196" stroke="#ECECEC" stroke-width="1.5" fill="#FFFFFF"></path>
                                <path d="M406.787879,45.5163736 L406.787879,26.9836264 C406.787879,26.4510027 406.34769,26.0151515 405.802302,26.0151515 L387.301505,26.0151515 C386.756844,26.0151515 386.318182,26.4502722 386.318182,26.9836264 L386.318182,45.5163736 C386.318182,46.0497278 386.756844,46.4848485 387.301505,46.4848485 L405.802302,46.4848485 C406.34769,46.4848485 406.787879,46.0489973 406.787879,45.5163736 Z" id="Fill-198" stroke="#ECECEC" stroke-width="1.5" fill="#FFFFFF"></path>
                                <path d="M432.05303,45.5163736 L432.05303,26.9836264 C432.05303,26.4510027 431.612842,26.0151515 431.067454,26.0151515 L412.566656,26.0151515 C412.023322,26.0151515 411.583333,26.4511961 411.583333,26.9836264 L411.583333,45.5163736 C411.583333,46.0488039 412.023322,46.4848485 412.566656,46.4848485 L431.067454,46.4848485 C431.612842,46.4848485 432.05303,46.0489973 432.05303,45.5163736 Z" id="Fill-200" stroke="#ECECEC" stroke-width="1.5" fill="#FFFFFF"></path>
                                <g id="Group" transform="translate(418.522727, 32.954545)" fill="#96BFF4">
                                    <polygon id="end" stroke="#96BFF4" stroke-width="1.5" stroke-linejoin="round" transform="translate(3.844697, 3.844697) rotate(-90.000000) translate(-3.844697, -3.844697) " points="3.84469697 1.09848485 6.59090909 6.59090909 1.09848485 6.59090909"></polygon>
                                    <rect id="Rectangle" x="0" y="0" width="1.09848485" height="7.68939394" rx="0.3"></rect>
                                </g>
                                <path d="M457.318182,45.5163736 L457.318182,26.9836264 C457.318182,26.4500792 456.87932,26.0151515 456.332605,26.0151515 L437.831808,26.0151515 C437.288474,26.0151515 436.848485,26.4511961 436.848485,26.9836264 L436.848485,45.5163736 C436.848485,46.0488039 437.288474,46.4848485 437.831808,46.4848485 L456.332605,46.4848485 C456.87932,46.4848485 457.318182,46.0499208 457.318182,45.5163736 Z" id="Fill-202" stroke="#ECECEC" stroke-width="1.5" fill="#FFFFFF"></path>
                                <path d="M406.787879,69.6886311 L406.787879,51.1447022 C406.787879,50.6147216 406.348939,50.1818182 405.802302,50.1818182 L387.301505,50.1818182 C386.755595,50.1818182 386.318182,50.6139914 386.318182,51.1447022 L386.318182,69.6886311 C386.318182,70.2180299 386.756527,70.6515152 387.301505,70.6515152 L405.802302,70.6515152 C406.348006,70.6515152 406.787879,70.2172997 406.787879,69.6886311 Z" id="Fill-204" stroke="#ECECEC" stroke-width="1.5" fill="#FFFFFF"></path>
                                <path d="M430.954545,69.6886084 L430.954545,51.1447249 C430.954545,50.6099214 430.535588,50.1818182 430.02823,50.1818182 L412.509648,50.1818182 C412.002291,50.1818182 411.583333,50.6099214 411.583333,51.1447249 L411.583333,69.6886084 C411.583333,70.2234119 412.002291,70.6515152 412.509648,70.6515152 L430.02823,70.6515152 C430.535588,70.6515152 430.954545,70.2234119 430.954545,69.6886084 Z" id="Fill-206" stroke="#ECECEC" stroke-width="1.5" fill="#FFFFFF"></path>
                                <g id="Group-12" transform="translate(418.522727, 57.121212)" fill="#96BFF4">
                                    <polygon id="end" stroke="#96BFF4" stroke-width="1.5" stroke-linejoin="round" transform="translate(2.746212, 3.844697) rotate(90.000000) translate(-2.746212, -3.844697) " points="2.74621212 1.09848485 5.49242424 6.59090909 7.14935989e-14 6.59090909"></polygon>
                                    <rect id="Rectangle" x="5.49242424" y="0" width="1.09848485" height="7.68939394" rx="0.3"></rect>
                                </g>
                                <path d="M457.318182,69.5951772 L457.318182,51.2381562 C457.318182,50.6467737 456.87153,50.1818182 456.332605,50.1818182 L437.831808,50.1818182 C437.296263,50.1818182 436.848485,50.6479469 436.848485,51.2381562 L436.848485,69.5951772 C436.848485,70.1840658 437.29715,70.6515152 437.831808,70.6515152 L456.332605,70.6515152 C456.870643,70.6515152 457.318182,70.18524 457.318182,69.5951772 Z" id="Fill-208" stroke="#ECECEC" stroke-width="1.5" fill="#FFFFFF"></path>
                                <polygon id="down" stroke="#96BFF4" stroke-width="1.5" fill="#96BFF4" stroke-linejoin="round" transform="translate(446.746212, 60.746212) rotate(180.000000) translate(-446.746212, -60.746212) " points="446.746212 58 449.492424 63.4924242 444 63.4924242"></polygon>
                                <polygon id="up" stroke="#96BFF4" stroke-width="1.5" fill="#96BFF4" stroke-linejoin="round" points="446.746212 34 449.492424 39.4924242 444 39.4924242"></polygon>
                                <path d="M492.469697,45.4702861 L492.469697,27.0274746 C492.469697,26.4656167 492.025828,26.0151515 491.48412,26.0151515 L472.983323,26.0151515 C472.442352,26.0151515 472,26.4648838 472,27.0274746 L472,45.4702861 C472,46.0335932 472.443072,46.4848485 472.983323,46.4848485 L491.48412,46.4848485 C492.025108,46.4848485 492.469697,46.0328602 492.469697,45.4702861 Z" id="Fill-210" stroke="#ECECEC" stroke-width="1.5" fill="#FFFFFF"></path>
                                <path d="M492.469697,45.4702861 L492.469697,27.0274746 C492.469697,26.4656167 492.025828,26.0151515 491.48412,26.0151515 L472.983323,26.0151515 C472.442352,26.0151515 472,26.4648838 472,27.0274746 L472,45.4702861 C472,46.0335932 472.443072,46.4848485 472.983323,46.4848485 L491.48412,46.4848485 C492.025108,46.4848485 492.469697,46.0328602 492.469697,45.4702861 Z" id="Fill-212" stroke="#ECECEC" stroke-width="1.5" fill="#FFFFFF"></path>
                                <path d="M517.734848,45.4702861 L517.734848,27.0274746 C517.734848,26.4656167 517.29098,26.0151515 516.749272,26.0151515 L498.248474,26.0151515 C497.708825,26.0151515 497.265152,26.4658228 497.265152,27.0274746 L497.265152,45.4702861 C497.265152,46.0326531 497.709545,46.4848485 498.248474,46.4848485 L516.749272,46.4848485 C517.290259,46.4848485 517.734848,46.0328602 517.734848,45.4702861 Z" id="Fill-214" stroke="#ECECEC" stroke-width="1.5" fill="#FFFFFF"></path>
                                <path d="M543,45.4702861 L543,27.0274746 C543,26.4656167 542.556131,26.0151515 542.014423,26.0151515 L523.513626,26.0151515 C522.973977,26.0151515 522.530303,26.4658228 522.530303,27.0274746 L522.530303,45.4702861 C522.530303,46.0326531 522.974697,46.4848485 523.513626,46.4848485 L542.014423,46.4848485 C542.555411,46.4848485 543,46.0328602 543,45.4702861 Z" id="Fill-216" stroke="#ECECEC" stroke-width="1.5" fill="#FFFFFF"></path>
                                <path d="M569.363636,45.4702861 L569.363636,27.0274746 C569.363636,26.4656167 568.919768,26.0151515 568.37806,26.0151515 L549.877262,26.0151515 C549.337613,26.0151515 548.893939,26.4658228 548.893939,27.0274746 L548.893939,45.4702861 C548.893939,46.0326531 549.338333,46.4848485 549.877262,46.4848485 L568.37806,46.4848485 C568.919047,46.4848485 569.363636,46.0328602 569.363636,45.4702861 Z" id="Fill-218" stroke="#ECECEC" stroke-width="1.5" fill="#FFFFFF"></path>
                                <path d="M492.469697,69.6369528 L492.469697,51.1941412 C492.469697,50.6322833 492.025828,50.1818182 491.48412,50.1818182 L472.983323,50.1818182 C472.442352,50.1818182 472,50.6315504 472,51.1941412 L472,69.6369528 C472,70.2002599 472.443072,70.6515152 472.983323,70.6515152 L491.48412,70.6515152 C492.025108,70.6515152 492.469697,70.1995269 492.469697,69.6369528 Z" id="Fill-220" stroke="#ECECEC" stroke-width="1.5" fill="#FFFFFF"></path>
                                <path d="M517.734848,69.6369528 L517.734848,51.1941412 C517.734848,50.6322833 517.29098,50.1818182 516.749272,50.1818182 L498.248474,50.1818182 C497.708825,50.1818182 497.265152,50.6324895 497.265152,51.1941412 L497.265152,69.6369528 C497.265152,70.1993198 497.709545,70.6515152 498.248474,70.6515152 L516.749272,70.6515152 C517.290259,70.6515152 517.734848,70.1995269 517.734848,69.6369528 Z" id="Fill-222" stroke="#ECECEC" stroke-width="1.5" fill="#FFFFFF"></path>
                                <path d="M543,69.6369528 L543,51.1941412 C543,50.6322833 542.556131,50.1818182 542.014423,50.1818182 L523.513626,50.1818182 C522.973977,50.1818182 522.530303,50.6324895 522.530303,51.1941412 L522.530303,69.6369528 C522.530303,70.1993198 522.974697,70.6515152 523.513626,70.6515152 L542.014423,70.6515152 C542.555411,70.6515152 543,70.1995269 543,69.6369528 Z" id="Fill-224" stroke="#ECECEC" stroke-width="1.5" fill="#FFFFFF"></path>
                                <path d="M569.363636,69.6369528 L569.363636,51.1941412 C569.363636,50.6322833 568.919768,50.1818182 568.37806,50.1818182 L549.877262,50.1818182 C549.337613,50.1818182 548.893939,50.6324895 548.893939,51.1941412 L548.893939,69.6369528 C548.893939,70.1993198 549.338333,70.6515152 549.877262,70.6515152 L568.37806,70.6515152 C568.919047,70.6515152 569.363636,70.1995269 569.363636,69.6369528 Z" id="Fill-226" stroke="#ECECEC" stroke-width="1.5" fill="#FFFFFF"></path>
                                <path d="M492.469697,94.9022842 L492.469697,76.4613522 C492.469697,75.8988942 492.025125,75.4469697 491.48412,75.4469697 L472.983323,75.4469697 C472.443054,75.4469697 472,75.8981612 472,76.4613522 L472,94.9022842 C472,95.4654752 472.443054,95.9166667 472.983323,95.9166667 L491.48412,95.9166667 C492.025125,95.9166667 492.469697,95.4647422 492.469697,94.9022842 Z" id="Fill-228" stroke="#ECECEC" stroke-width="1.5" fill="#FFFFFF"></path>
                                <path d="M517.734848,94.9022842 L517.734848,76.4613522 C517.734848,75.8988942 517.290277,75.4469697 516.749272,75.4469697 L498.248474,75.4469697 C497.709528,75.4469697 497.265152,75.8991012 497.265152,76.4613522 L497.265152,94.9022842 C497.265152,95.4645352 497.709528,95.9166667 498.248474,95.9166667 L516.749272,95.9166667 C517.290277,95.9166667 517.734848,95.4647422 517.734848,94.9022842 Z" id="Fill-230" stroke="#ECECEC" stroke-width="1.5" fill="#FFFFFF"></path>
                                <path d="M543,94.9022842 L543,76.4613522 C543,75.8988942 542.555428,75.4469697 542.014423,75.4469697 L523.513626,75.4469697 C522.974679,75.4469697 522.530303,75.8991012 522.530303,76.4613522 L522.530303,94.9022842 C522.530303,95.4645352 522.974679,95.9166667 523.513626,95.9166667 L542.014423,95.9166667 C542.555428,95.9166667 543,95.4647422 543,94.9022842 Z" id="Fill-232" stroke="#ECECEC" stroke-width="1.5" fill="#FFFFFF"></path>
                                <path d="M492.469697,117.970466 L492.469697,99.529534 C492.469697,98.967076 492.025125,98.5151515 491.48412,98.5151515 L472.983323,98.5151515 C472.443054,98.5151515 472,98.966343 472,99.529534 L472,117.970466 C472,118.533657 472.443054,118.984848 472.983323,118.984848 L491.48412,118.984848 C492.025125,118.984848 492.469697,118.532924 492.469697,117.970466 Z" id="Fill-234" stroke="#ECECEC" stroke-width="1.5" fill="#FFFFFF"></path>
                                <path d="M517.734848,117.970466 L517.734848,99.529534 C517.734848,98.967076 517.290277,98.5151515 516.749272,98.5151515 L498.248474,98.5151515 C497.709528,98.5151515 497.265152,98.967283 497.265152,99.529534 L497.265152,117.970466 C497.265152,118.532717 497.709528,118.984848 498.248474,118.984848 L516.749272,118.984848 C517.290277,118.984848 517.734848,118.532924 517.734848,117.970466 Z" id="Fill-236" stroke="#ECECEC" stroke-width="1.5" fill="#FFFFFF"></path>
                                <path d="M543,117.970466 L543,99.529534 C543,98.967076 542.555428,98.5151515 542.014423,98.5151515 L523.513626,98.5151515 C522.974679,98.5151515 522.530303,98.967283 522.530303,99.529534 L522.530303,117.970466 C522.530303,118.532717 522.974679,118.984848 523.513626,118.984848 L542.014423,118.984848 C542.555428,118.984848 543,118.532924 543,117.970466 Z" id="Fill-238" stroke="#ECECEC" stroke-width="1.5" fill="#FFFFFF"></path>
                                <path d="M569.363636,94.9022842 L569.363636,76.4613522 C569.363636,75.8988942 568.919065,75.4469697 568.37806,75.4469697 L549.877262,75.4469697 C549.338316,75.4469697 548.893939,75.8991012 548.893939,76.4613522 L548.893939,94.9022842 C548.893939,95.4645352 549.338316,95.9166667 549.877262,95.9166667 L568.37806,95.9166667 C568.919065,95.9166667 569.363636,95.4647422 569.363636,94.9022842 Z" id="Fill-240" stroke="#ECECEC" stroke-width="1.5" fill="#FFFFFF"></path>
                            </g>
                        </g>
                    </g>
                </g>
            </g>
        </g>
    </g>
</svg>