<?xml version="1.0" encoding="UTF-8"?>
<svg width="752px" height="343px" viewBox="0 0 752 343" version="1.1" xmlns="http://www.w3.org/2000/svg" xmlns:xlink="http://www.w3.org/1999/xlink">
    <!-- Generator: Sketch 55.2 (78181) - https://sketchapp.com -->
    <title>image</title>
    <desc>Created with Sketch.</desc>
    <defs>
        <rect id="path-1" x="51" y="28" width="668" height="286" rx="8"></rect>
        <filter x="-3.9%" y="-7.7%" width="107.8%" height="118.2%" filterUnits="objectBoundingBox" id="filter-2">
            <feOffset dx="0" dy="4" in="SourceAlpha" result="shadowOffsetOuter1"></feOffset>
            <feGaussianBlur stdDeviation="8" in="shadowOffsetOuter1" result="shadowBlurOuter1"></feGaussianBlur>
            <feColorMatrix values="0 0 0 0 0.854901961   0 0 0 0 0.862745098   0 0 0 0 0.878431373  0 0 0 1 0" type="matrix" in="shadowBlurOuter1"></feColorMatrix>
        </filter>
        <filter x="-13.8%" y="-13.8%" width="127.6%" height="127.6%" filterUnits="objectBoundingBox" id="filter-3">
            <feOffset dx="2" dy="2" in="SourceAlpha" result="shadowOffsetOuter1"></feOffset>
            <feGaussianBlur stdDeviation="2" in="shadowOffsetOuter1" result="shadowBlurOuter1"></feGaussianBlur>
            <feColorMatrix values="0 0 0 0 0.854901961   0 0 0 0 0.862745098   0 0 0 0 0.878431373  0 0 0 1 0" type="matrix" in="shadowBlurOuter1" result="shadowMatrixOuter1"></feColorMatrix>
            <feMerge>
                <feMergeNode in="shadowMatrixOuter1"></feMergeNode>
                <feMergeNode in="SourceGraphic"></feMergeNode>
            </feMerge>
        </filter>
    </defs>
    <g id="Smooth-Scroll" stroke="none" stroke-width="1" fill="none" fill-rule="evenodd">
        <g id="Demo" transform="translate(-338.000000, -6228.000000)">
            <g id="Page" transform="translate(0.000000, 816.000000)">
                <g id="7" transform="translate(339.000000, 5112.000000)">
                    <g id="image" transform="translate(0.000000, 300.000000)">
                        <g id="Group-15" transform="translate(0.000000, 265.000000)" stroke="#96BFF4" stroke-width="1.5">
                            <rect id="Rectangle" x="42" y="0.5" width="34" height="34" rx="3"></rect>
                            <rect id="Rectangle-Copy-3" x="42" y="42.5" width="34" height="34" rx="3"></rect>
                            <rect id="Rectangle-Copy-5" x="0" y="0.5" width="34" height="34" rx="3"></rect>
                            <rect id="Rectangle-Copy-4" x="0" y="42.5" width="34" height="34" rx="3"></rect>
                        </g>
                        <g id="code" transform="translate(627.000000, 0.000000)">
                            <polygon id="Rectangle" fill="#7FCA9C" points="64.4807486 0 72 0.243423833 56.5345636 46 49 45.8018795"></polygon>
                            <polyline id="Path-Copy" stroke="#7FCA9C" stroke-width="1.5" stroke-linecap="square" transform="translate(106.500000, 23.000000) rotate(90.000000) translate(-106.500000, -23.000000) " points="91 38 106.5 8 122 38"></polyline>
                            <polyline id="Path-Copy-2" stroke="#7FCA9C" stroke-width="1.5" stroke-linecap="square" transform="translate(15.500000, 23.000000) rotate(270.000000) translate(-15.500000, -23.000000) " points="0 38 15.5 8 31 38"></polyline>
                        </g>
                        <g id="bg">
                            <use fill="black" fill-opacity="1" filter="url(#filter-2)" xlink:href="#path-1"></use>
                            <use fill="#FFFFFF" fill-rule="evenodd" xlink:href="#path-1"></use>
                        </g>
                        <g id="Group-21" transform="translate(165.000000, 60.000000)">
                            <g id="Group-20" transform="translate(0.000000, 0.817000)">
                                <polygon id="Fill-1" fill="#D6D6D6" points="0 194.392 439.95 194.392 439.95 184.183 0 184.183"></polygon>
                                <polygon id="Fill-2" fill="#D6D6D6" points="78.1083 194.1368 79.0733 220.9998 89.9653 220.9998 90.9293 194.1368"></polygon>
                                <polygon id="Fill-3" fill="#D6D6D6" points="347.4459 194.1368 348.4109 220.9998 359.3019 220.9998 360.2659 194.1368"></polygon>
                                <polygon id="Fill-4" fill="#AAAAAA" points="90.576 203.9885 78.463 203.9885 78.109 194.1365 90.93 194.1365"></polygon>
                                <polygon id="Fill-5" fill="#AAAAAA" points="359.9129 203.9885 347.7999 203.9885 347.4459 194.1365 360.2669 194.1365"></polygon>
                                <g id="cup" transform="translate(32.310275, 76.263986)">
                                    <path d="M38.7305246,98.645414 C41.2455246,98.645414 47.0655246,98.318414 51.0385246,95.547414 C53.6545246,93.722414 54.9835246,91.247414 54.9835246,88.186414 C54.9835246,84.802414 53.6175246,82.145414 50.9205246,80.283414 C46.5635246,77.275414 40.4075246,77.670414 40.1455246,77.686414 L40.6315246,81.805414 C40.6735246,81.809414 44.7105246,81.580414 47.2575246,83.352414 C48.7585246,84.398414 49.5165246,86.026414 49.5165246,88.186414 C49.5165246,90.072414 48.8005246,91.485414 47.3325246,92.506414 C44.0485246,94.796414 38.0155246,94.494414 37.9565246,94.494414 L37.5075246,98.613414 C37.5825246,98.617414 38.0255246,98.645414 38.7305246,98.645414" id="Fill-6" fill="#7FCA9C"></path>
                                    <polygon id="Fill-8" fill="#7FCA9C" points="43.9976246 69.440314 3.99762456 69.440314 9.92362456 107.344314 37.7756246 107.344314"></polygon>
                                    <path d="M30.5300246,55.007814 C32.3490246,52.630814 33.9800246,49.811814 34.6840246,46.297814 C35.4220246,42.800814 34.6740246,38.616814 32.7570246,35.445814 C30.8670246,32.255814 28.3060246,29.950814 25.7510246,28.095814 C25.4000246,27.840814 25.1490246,27.644814 24.9130246,27.454814 L24.1730246,26.870814 L22.7250246,25.691814 C21.7810246,24.900814 20.8610246,24.105814 20.0150246,23.301814 C18.3480246,21.737814 16.7760246,19.981814 16.3020246,18.827814 C16.0700246,18.289814 16.2690246,18.020814 16.5790246,18.624814 C16.7050246,18.899814 16.8100246,19.366814 16.8220246,19.702814 C16.8350246,20.056814 16.8100246,20.281814 16.8880246,20.317814 C16.9610246,20.430814 17.4650246,19.967814 18.1360246,19.476814 C18.8180246,18.961814 19.7020246,18.334814 20.6670246,17.677814 C25.0850246,14.669814 26.2280246,8.64881396 23.2190246,4.23181396 C20.2110246,-0.186186042 14.1910246,-1.32918604 9.77402456,1.67981396 C9.16902456,2.09081396 8.62602456,2.55881396 8.14702456,3.07081396 L7.95102456,3.28581396 C6.95202456,4.36681396 5.90302456,5.51981396 4.78702456,6.91581396 C3.68102456,8.34481396 2.46302456,9.90481396 1.35102456,12.365814 C0.243024556,14.677814 -0.478975444,18.472814 0.376024556,21.667814 C1.17202456,24.863814 2.75802456,26.919814 4.12502456,28.441814 C5.53202456,29.950814 6.90302456,31.013814 8.23302456,31.944814 C9.56402456,32.863814 10.8720246,33.670814 12.1590246,34.372814 C13.4490246,35.093814 14.7250246,35.734814 15.9960246,36.350814 L19.6850246,38.053814 C21.5880246,38.925814 23.2140246,39.985814 24.2960246,41.141814 C25.3460246,42.305814 25.9510246,43.523814 26.0080246,45.248814 C26.0960246,48.714814 23.5290246,53.405814 20.5410246,56.843814 L20.3790246,57.029814 C19.3590246,58.201814 19.4840246,59.979814 20.6560246,60.998814 C21.6740246,61.883814 23.1500246,61.904814 24.1880246,61.127814 C26.6320246,59.297814 28.6310246,57.390814 30.5300246,55.007814 Z" id="Fill-10" fill="#F8F9FA"></path>
                                </g>
                                <path d="M318.842963,157 L120.155843,157 C111.785557,157 105,150.254568 105,141.933777 L105,134 L334,134 L334,141.933777 C334,150.254568 327.214443,157 318.842963,157" id="Fill-12" fill="#ECECEC"></path>
                                <polygon id="Fill-14" fill="#D6D6D6" points="196 177 243 177 243 157 196 157"></polygon>
                                <path d="M334,134 L105,134 L105,10.6174961 C105,4.7544954 109.746999,0 115.603422,0 L323.396578,0 C329.251807,0 334,4.7544954 334,10.6174961 L334,134 Z" id="Fill-16" fill="#D6D6D6"></path>
                                <polygon id="Fill-17" fill="#FFFFFF" points="113 126 326 126 326 10 113 10"></polygon>
                                <path d="M296.319892,110.183 L219.680108,110.183 C217.648271,110.183 216,108.544312 216,106.52192 L216,33.8440798 C216,31.8227483 217.648271,30.183 219.680108,30.183 L296.319892,30.183 C298.352795,30.183 300,31.8227483 300,33.8440798 L300,106.52192 C300,108.544312 298.352795,110.183 296.319892,110.183" id="Fill-1" fill="#F8F9FA"></path>
                                <path d="M142.782091,110.183 C140.6933,110.183 139,108.484827 139,106.390023 L139,68.9759771 C139,66.88011 140.6933,65.183 142.782091,65.183 L197.217909,65.183 C199.3067,65.183 201,66.88011 201,68.9759771 L201,106.390023 C201,108.484827 199.3067,110.183 197.217909,110.183 L142.782091,110.183 Z" id="Fill-4" fill="#F8F9FA"></path>
                                <path d="M147.286142,97.183 C146.575519,97.183 146,96.5420047 146,95.7517204 L146,95.6154645 C146,94.8239953 146.575519,94.183 147.286142,94.183 L192.714922,94.183 C193.424481,94.183 194,94.8239953 194,95.6154645 L194,95.7517204 C194,96.5420047 193.424481,97.183 192.714922,97.183 L147.286142,97.183 Z" id="Fill-7" fill="#D6D6D6"></path>
                                <path d="M147.310349,104.183 C146.586351,104.183 146,103.542005 146,102.75172 L146,102.61428 C146,101.823995 146.586351,101.183 147.310349,101.183 L173.690735,101.183 C174.413649,101.183 175,101.823995 175,102.61428 L175,102.75172 C175,103.542005 174.413649,104.183 173.690735,104.183 L147.310349,104.183 Z" id="Fill-9" fill="#D6D6D6"></path>
                                <path d="M153.499471,88.183 C148.805623,88.183 145,84.3771403 145,79.683 C145,74.9888597 148.805623,71.183 153.499471,71.183 C158.194377,71.183 162,74.9888597 162,79.683 C162,84.3771403 158.194377,88.183 153.499471,88.183 Z" id="Fill-11" fill="#D6D6D6"></path>
                                <path d="M141.275429,33.183 C140.57178,33.183 140,32.5422578 140,31.7522854 L140,31.6148989 C140,30.8237422 140.57178,30.183 141.275429,30.183 L174.725626,30.183 C175.429275,30.183 176,30.8237422 176,31.6148989 L176,31.7522854 C176,32.5422578 175.429275,33.183 174.725626,33.183 L141.275429,33.183 Z" id="Fill-13" fill="#ECECEC"></path>
                                <path d="M141.283877,50.183 C140.574981,50.183 140,49.5420047 140,48.7517204 L140,48.6154645 C140,47.8239953 140.574981,47.183 141.283877,47.183 L188.716123,47.183 C189.425019,47.183 190,47.8239953 190,48.6154645 L190,48.7517204 C190,49.5420047 189.425019,50.183 188.716123,50.183 L141.283877,50.183 Z" id="Fill-15" fill="#ECECEC"></path>
                                <path d="M141.27793,42.183 C140.572318,42.183 140,41.5422578 140,40.7522854 L140,40.6148989 C140,39.8237422 140.572318,39.183 141.27793,39.183 L199.72207,39.183 C200.427682,39.183 201,39.8237422 201,40.6148989 L201,40.7522854 C201,41.5422578 200.427682,42.183 199.72207,42.183 L141.27793,42.183 Z" id="Fill-17" fill="#ECECEC"></path>
                                <path d="M225,144 C225,146.762641 222.761745,149 220.000577,149 C217.239409,149 215,146.762641 215,144 C215,141.238513 217.239409,139 220.000577,139 C222.761745,139 225,141.238513 225,144" id="Fill-18" fill="#FFFFFF"></path>
                                <path d="M264,184 L176,184 C176,180.133592 179.03115,177 182.772352,177 L257.227648,177 C260.967657,177 264,180.133592 264,184" id="Fill-19" fill="#ECECEC"></path>
                                <g id="011-scroll-5-copy-2" transform="translate(309.000000, 42.183000)" stroke="#96BFF4" stroke-width="1.5">
                                    <g id="Group-4" transform="translate(0.000000, 32.857143)" stroke-linecap="round">
                                        <path d="M4.72735,0.255102041 L4.72735,17.8571429" id="Line-2"></path>
                                        <path d="M5.22727273,17.8571429 L9.77272727,13.1448413" id="Line-3"></path>
                                        <path d="M4.75213636,17.8571429 L0.227272727,13.1448413" id="Line-4"></path>
                                    </g>
                                    <g id="Group-3" transform="translate(5.000000, 8.928571) rotate(180.000000) translate(-5.000000, -8.928571) " stroke-linecap="round">
                                        <path d="M4.72735,0.255102041 L4.72735,17.8571429" id="Line-2"></path>
                                        <path d="M5.22727273,17.8571429 L9.77272727,13.1448413" id="Line-3"></path>
                                        <path d="M4.75213636,17.8571429 L0.227272727,13.1448413" id="Line-4"></path>
                                    </g>
                                    <rect id="Rectangle" x="0.75" y="23.6071429" width="8.5" height="3.5" rx="1.5"></rect>
                                </g>
                            </g>
                        </g>
                        <g id="Unofficial_JavaScript_logo_2" filter="url(#filter-3)" transform="translate(600.000000, 60.000000)" fill-rule="nonzero">
                            <rect id="Rectangle" fill="#F7DF1E" x="0" y="0" width="87" height="87"></rect>
                            <path d="M58.3265734,67.6926287 C60.0687396,70.5744089 62.3353404,72.6926287 66.3441075,72.6926287 C69.7117464,72.6926287 71.8630266,70.9874826 71.8630266,68.6314325 C71.8630266,65.8080668 69.6527132,64.8080668 65.9459765,63.1655076 L63.9141357,62.2823366 C58.0492546,59.7510431 54.1530625,56.5799722 54.1530625,49.876217 C54.1530625,43.7009736 58.7974662,39 66.0558058,39 C71.2232713,39 74.9382451,40.821975 77.6153327,45.5924896 L71.2864231,49.7093185 C69.8929647,47.178025 68.389677,46.1808067 66.0558058,46.1808067 C63.6752571,46.1808067 62.166478,47.7107093 62.166478,49.7093185 C62.166478,52.1794159 63.67663,53.1794159 67.1637082,54.7093185 L69.195549,55.5910987 C76.1010622,58.5910987 80,61.6495132 80,68.5257302 C80,75.9388039 74.2518124,80 66.5321901,80 C58.9841759,80 54.1077579,76.3560501 51.7217178,71.5799722 L58.3265734,67.6926287 Z M29.6158385,68.4061196 C30.8926034,70.7009736 32.0540475,72.6411683 34.8464558,72.6411683 C37.5166791,72.6411683 39.201185,71.5827538 39.201185,67.4673157 L39.201185,39.4700974 L47.3285484,39.4700974 L47.3285484,67.5785814 C47.3285484,76.1043115 42.39447,79.984701 35.1924179,79.984701 C28.6850358,79.984701 24.9165201,76.5730181 23,72.4638387 L29.6158385,68.4061196 Z" id="Shape" fill="#000000"></path>
                        </g>
                    </g>
                </g>
            </g>
        </g>
    </g>
</svg>