<?xml version="1.0" encoding="UTF-8"?>
<svg width="649px" height="363px" viewBox="0 0 649 363" version="1.1" xmlns="http://www.w3.org/2000/svg" xmlns:xlink="http://www.w3.org/1999/xlink">
    <!-- Generator: Sketch 55.2 (78181) - https://sketchapp.com -->
    <title>Image</title>
    <desc>Created with Sketch.</desc>
    <g id="Smooth-Scroll" stroke="none" stroke-width="1" fill="none" fill-rule="evenodd">
        <g id="Demo" transform="translate(-414.000000, -11386.000000)">
            <g id="Page" transform="translate(0.000000, 816.000000)">
                <g id="13" transform="translate(1.000000, 9891.000000)">
                    <g id="Image" transform="translate(413.000000, 679.000000)">
                        <g id="Group-126" transform="translate(60.003100, 0.000000)">
                            <g id="stars" transform="translate(351.996900, 190.000000)" fill="#F2B827" stroke="#F2B827" stroke-linejoin="round" stroke-width="1.5">
                                <polygon id="Star-Copy-5" points="10 16.5835921 3.81966011 20 5 12.763932 0 7.63932023 6.90983006 6.58359214 10 0 13.0901699 6.58359214 20 7.63932023 15 12.763932 16.1803399 20"></polygon>
                                <polygon id="Star-Copy-6" points="34 16.5835921 27.8196601 20 29 12.763932 24 7.63932023 30.9098301 6.58359214 34 0 37.0901699 6.58359214 44 7.63932023 39 12.763932 40.1803399 20"></polygon>
                                <polygon id="Star-Copy-7" points="58 16.5835921 51.8196601 20 53 12.763932 48 7.63932023 54.9098301 6.58359214 58 0 61.0901699 6.58359214 68 7.63932023 63 12.763932 64.1803399 20"></polygon>
                                <polygon id="Star-Copy-8" points="82 16.5835921 75.8196601 20 77 12.763932 72 7.63932023 78.9098301 6.58359214 82 0 85.0901699 6.58359214 92 7.63932023 87 12.763932 88.1803399 20"></polygon>
                                <polygon id="Star-Copy-9" points="106 16.5835921 99.8196601 20 101 12.763932 96 7.63932023 102.90983 6.58359214 106 0 109.09017 6.58359214 116 7.63932023 111 12.763932 112.18034 20"></polygon>
                            </g>
                            <g id="cup-copy" transform="translate(69.000000, 268.000000)">
                                <path d="M25.4983221,64.8529412 C27.1279099,64.8529412 30.898964,64.6444031 33.4732591,62.8772503 C35.1682896,61.7133911 36.0294118,60.1350067 36.0294118,58.1829119 C36.0294118,56.02483 35.1443156,54.3303785 33.3968013,53.1429233 C30.5736943,51.2246282 26.5849299,51.476532 26.4151677,51.4867357 L26.7300701,54.11355 C26.7572839,54.1161009 29.3730477,53.9700605 31.0233699,55.1001199 C31.995939,55.7671866 32.4870831,56.8054128 32.4870831,58.1829119 C32.4870831,59.3856727 32.0231528,60.2867867 31.0719659,60.9379101 C28.9441065,62.3983143 25.0350397,62.2057195 24.9968108,62.2057195 L24.7058824,64.8325338 C24.7544784,64.8350847 25.0415191,64.8529412 25.4983221,64.8529412" id="Fill-6" fill="#EA4335"></path>
                                <polygon id="Fill-8" fill="#EA4335" points="28.8235294 45.2941176 3.08823529 45.2941176 6.90091912 70 24.8204044 70"></polygon>
                                <path d="M19.775079,35.7996351 C20.9532919,34.2526597 22.0097323,32.4180264 22.4657312,30.13108 C22.9437527,27.8551975 22.4592539,25.1322085 21.2175639,23.06849 C19.9933625,20.9924061 18.3345372,19.4922891 16.6795982,18.2850365 C16.4522466,18.11908 16.2896674,17.9915212 16.1368042,17.8678673 L15.6574872,17.4877943 L14.7195805,16.7204893 C14.1081276,16.2056986 13.51222,15.6883046 12.9642441,15.1650534 C11.8844855,14.1471866 10.8662608,13.0043642 10.5592389,12.2533295 C10.4089666,11.9031937 10.537864,11.7281258 10.7386589,12.1212151 C10.8202723,12.3001878 10.8882835,12.6041161 10.8960562,12.8227882 C10.9044767,13.053175 10.8882835,13.1996072 10.9388061,13.2230364 C10.9860901,13.2965779 11.3125438,12.9952529 11.7471677,12.6757052 C12.1889166,12.340538 12.761506,11.9324802 13.3865612,11.504898 C16.248213,9.54726154 16.9885634,5.62873456 15.039557,2.75410682 C13.0911983,-0.121171737 9.19189013,-0.86504756 6.33088608,1.09323971 C5.93901208,1.36072262 5.58729707,1.6653017 5.2770365,1.99851641 L5.15008228,2.13844056 C4.50300439,2.84196617 3.82354022,3.59235009 3.10067843,4.50088084 C2.3842939,5.43088832 1.5953641,6.44615192 0.875093213,8.04779531 C0.15741323,9.55246802 -0.310244665,12.0222919 0.243560737,14.1016299 C0.759150328,16.1816186 1.78644316,17.519684 2.67188407,18.5102168 C3.58323401,19.4922891 4.47126583,20.1841001 5.3327409,20.7900042 C6.1948637,21.3880986 7.04208881,21.9133022 7.87571167,22.3701709 C8.71127772,22.8394049 9.5377756,23.2565741 10.3610349,23.657473 L12.7504947,24.7658024 C13.9831165,25.3333088 15.0363184,26.0231674 15.7371575,26.7755037 C16.4172694,27.5330465 16.8091434,28.3257331 16.8460637,29.4483804 C16.9030636,31.7040878 15.2403519,34.7570375 13.3049478,36.9945222 L13.2000162,37.1155729 C12.5393361,37.8783222 12.6203018,39.0354624 13.3794362,39.6986378 C14.0388209,40.2746046 14.9948639,40.2882716 15.6672031,39.7825923 C17.2502445,38.59161 18.545048,37.3505153 19.775079,35.7996351 Z" id="Fill-10" fill="#ECECEC"></path>
                            </g>
                            <g id="man" transform="translate(128.329900, 98.500000)">
                                <path d="M123.0039,174.498 C132.9759,176.905 144.2969,189.25 139.0469,207.75 C137.4379,213.39 134.4669,218.03 131.0769,221.86 L146.1879,237.44 C162.8579,224.58 176.0569,195.2 165.1269,168.17 C152.4669,136.83 117.1269,111.17 117.1269,111.17 C115.4669,110.33 116.5469,112.75 112.7969,125.75 C109.0469,138.75 112.5649,171.978 123.0039,174.498" id="Fill-1" fill="#1A73E8"></path>
                                <path d="M144,241.25 C143.811,241.94 138.23,242.45 129.93,242.83 C129.84,243.24 129.72,243.47 129.58,243.5 C129.021,243.61 124.22,243.7 117.101,243.73 C110.21,243.77 101.15,243.76 91.66,243.68 C89.97,243.69 88.3,243.71 86.65,243.71 C69.42,243.82 54.75,243.7 53.75,243.5 C53.61,243.47 53.48,243.23 53.36,242.83 C45.08,242.45 39.51,241.94 39.33,241.25 C39.17,240.65 39.91,234.19 41.21,224.46 C41.21,224.45 41.21,224.45 41.22,224.44 C41.42,222.92 41.641,221.31 41.87,219.63 C43.54,207.45 45.86,191.54 48.33,175.72 C50.22,163.6 52.2,151.54 54.021,141.23 C55.97,130.27 57.75,121.3 59.09,116.37 C59.2,115.94 59.311,115.54 59.42,115.18 C59.95,113.39 60.4,112.36 60.75,112.25 C62.94,111.56 82.101,112.31 92.98,113.69 C103.34,112.38 113.57,111.65 115.5,112.25 C119.5,113.5 144.75,238.5 144,241.25 L74.667,180.239901" id="Fill-3" fill="#135CBC"></path>
                                <path d="M63.2598,145.0996 C62.3608,158.5706 58.4998,172.8796 51.7898,174.4996 C50.6508,174.7806 49.4808,175.1796 48.3298,175.7196 C39.4408,179.8206 31.1008,191.3706 35.7498,207.7496 C36.4998,210.3706 37.5398,212.7696 38.7898,214.9696 C39.7098,216.6296 40.7498,218.1796 41.8698,219.6296 C42.4698,220.4006 43.0898,221.1396 43.7198,221.8606 L41.2198,224.4406 L41.2198,224.4506 L28.6108,237.4406 C26.2308,235.5996 23.9198,233.4296 21.7398,230.9696 C8.6598,216.2306 0.2998,191.3396 9.6698,168.1696 C15.7498,153.1206 27.0608,139.3706 37.1798,129.1606 C43.6508,122.6206 49.6298,117.5306 53.4408,114.4596 C56.0798,112.3296 57.6698,111.1696 57.6698,111.1696 C58.7098,110.6506 58.6698,111.3896 59.4198,115.1796 C59.4998,115.6106 59.5898,116.0706 59.6998,116.5796 C60.1598,118.7806 60.8508,121.7696 61.9998,125.7496 C63.3398,130.3896 63.7498,137.6206 63.2598,145.0996" id="Fill-5" fill="#1A73E8"></path>
                                <path d="M43.7197,221.8604 L41.2197,224.4404 L41.2197,224.4504 L28.6107,237.4404 C26.2307,235.5994 23.9197,233.4294 21.7407,230.9694 L38.7897,214.9694 C39.7097,216.6304 40.7497,218.1794 41.8697,219.6304 C42.4697,220.4004 43.0897,221.1394 43.7197,221.8604" id="Fill-7" fill="#134F9E"></path>
                                <path d="M118.1006,241.7305 C111.2096,241.7695 102.1506,241.7595 92.6606,241.6795 C90.9696,241.6905 89.2996,241.7095 87.6506,241.7095 C87.1006,240.7805 86.7596,239.7195 86.6696,238.5005 C85.6696,225.1695 90.6696,222.5005 91.6696,222.5005 C92.6696,222.5005 90.9996,175.5005 90.6696,166.1695 C90.3296,156.8305 89.9996,152.8305 89.9996,152.8305 C78.6696,153.5005 71.3296,141.5005 71.3296,141.5005 C68.5796,142.5195 66.2496,143.0095 64.2596,143.0995 C59.7306,143.3205 56.9596,141.5005 55.0206,139.2305 C52.2406,135.9805 51.1606,131.8305 48.9996,131.5005 C46.1206,131.0495 41.1696,128.6905 38.1796,127.1605 C44.6506,120.6205 50.6296,115.5305 54.4406,112.4595 L60.0896,114.3705 L60.7006,114.5805 L105.6696,129.8305 L118.1006,241.7305 Z" id="Fill-9" fill="#194C8F"></path>
                                <path d="M135.5,68.583 C135.5,98.729 111.063,123.167 80.917,123.167 C50.771,123.167 26.334,98.729 26.334,68.583 C26.334,25.25 50.771,14 80.917,14 C111.063,14 135.5,27 135.5,68.583" id="Fill-11" fill="#F8CCB9"></path>
                                <path d="M138.5469,72.5244 C138.3459,66.5224 138.8059,48.4624 134.0659,48.7564 C129.3239,49.0504 132.5839,85.4194 128.7469,88.1624 C124.9089,90.9044 115.5339,97.2484 114.9579,96.0314 C114.3809,94.8144 110.3789,82.7904 98.1209,83.0494 C89.2469,83.2384 78.7169,83.0574 73.5539,84.0864 C71.4809,84.0664 68.9899,84.1284 65.9999,84.2504 C53.7499,84.7504 50.4999,97.0004 49.9999,98.2504 C49.4999,99.5004 39.7499,93.7504 35.7499,91.2504 C31.7499,88.7504 32.7499,52.2504 27.9999,52.2504 C23.2499,52.2504 24.8289,70.2474 24.9999,76.2504 C25.2499,85.0004 28.7499,109.0004 33.9999,117.2504 C39.2499,125.5004 50.9999,125.2504 52.4999,125.0004 C53.9999,124.7504 53.4999,129.2504 57.4999,134.2504 C61.4999,139.2504 69.2499,136.7504 72.2499,135.7504 C75.2499,134.7504 75.7499,134.7504 76.7499,140.0004 C77.4859,143.8634 82.3619,146.5364 86.6669,146.6674 C92.1669,146.8334 98.6929,143.3744 100.1669,136.0004 C100.6669,133.5004 102.9999,132.8334 104.3339,134.3334 C107.5039,137.9004 113.4999,137.0004 114.6669,133.0004 C116.4239,126.9744 117.3339,126.1674 119.4999,125.5004 C120.9539,125.0524 127.3759,122.5624 132.1049,114.0034 C136.8329,105.4434 138.8389,81.2734 138.5469,72.5244" id="Fill-13" fill="#443027"></path>
                                <path d="M61,71.333 C61,75.107 59.061,78.167 56.667,78.167 C54.273,78.167 52.334,75.107 52.334,71.333 C52.334,67.56 54.273,64.5 56.667,64.5 C59.061,64.5 61,67.56 61,71.333" id="Fill-15" fill="#425268"></path>
                                <path d="M100.75,71.333 C100.75,75.107 98.811,78.167 96.417,78.167 C94.023,78.167 92.084,75.107 92.084,71.333 C92.084,67.56 94.023,64.5 96.417,64.5 C98.811,64.5 100.75,67.56 100.75,71.333" id="Fill-17" fill="#425268"></path>
                                <path d="M84.167,81.5 C86.207,78.95 87.038,75.247 85.834,73.167 C84,70 77.176,67.761 71.334,71.5 C67.167,74.167 69.485,81.519 72,82.833 C74.822,84.309 73.5,81.333 72.667,79.5 C71.834,77.667 71.485,72.753 77.667,73 C81.834,73.167 83.331,74.909 82.334,78.5 C81.5,81.5 82.834,83.167 84.167,81.5" id="Fill-19" fill="#EEA099"></path>
                                <path d="M95,92.79 L95,97 C95,101.18 93.46,105 90.93,107.93 C87.87,111.5 83.32,113.75 78.25,113.75 L77.41,113.75 C72.88,113.75 68.79,111.96 65.78,109.04 C62.63,106 60.67,101.73 60.67,97 L60.67,92.79 C60.67,91.71 61.54,90.83 62.62,90.83 L93.04,90.83 C94.12,90.83 95,91.71 95,92.79" id="Fill-21" fill="#FFFFFF"></path>
                                <path d="M90.9297,107.9297 C87.8697,111.4997 83.3207,113.7497 78.2497,113.7497 L77.4097,113.7497 C72.8797,113.7497 68.7897,111.9597 65.7807,109.0397 C67.0307,103.1597 72.2497,98.7497 78.4997,98.7497 C84.3507,98.7497 89.2997,102.6197 90.9297,107.9297" id="Fill-23" fill="#EEA099"></path>
                                <path d="M137.3398,57.5601 C137.1198,59.7001 136.5398,61.3601 135.4998,62.2501 C130.2498,66.7501 120.9998,27.7501 118.2498,29.5001 C115.4998,31.2501 41.2498,33.2501 39.2498,32.0001 C37.2498,30.7501 32.7498,58.7501 28.7498,60.5001 C25.1908,62.0601 24.4998,61.1601 23.6008,56.8001 C23.4898,56.2501 23.3698,55.6601 23.2498,55.0001 C22.2498,49.7501 24.2498,37.5001 24.7498,32.0001 C25.2498,26.5001 34.9998,6.5001 73.7498,6.5001 C114.7498,6.5001 126.2498,20.2501 130.2498,27.0001 C133.4598,32.4101 138.2708,48.9101 137.3398,57.5601" id="Fill-25" fill="#443027"></path>
                                <path d="M137.3398,57.5601 C134.0698,57.0901 131.2598,48.4701 127.9998,42.5001 C123.9998,35.1701 123.3298,14.1701 80.9198,14.0001 C38.4998,13.8301 30.3298,33.8301 27.9998,45.1701 C25.6698,56.5001 24.4698,56.2501 24.4698,56.2501 C24.1798,56.4901 23.8908,56.6801 23.6008,56.8001 C23.4898,56.2501 23.3698,55.6601 23.2498,55.0001 C22.2498,49.7501 24.2498,37.5001 24.7498,32.0001 C25.2498,26.5001 34.9998,6.5001 73.7498,6.5001 C114.7498,6.5001 126.2498,20.2501 130.2498,27.0001 C133.4598,32.4101 138.2708,48.9101 137.3398,57.5601" id="Fill-27" fill="#34251F"></path>
                                <path d="M144.9502,63.5 C145.1302,65.57 142.4702,65.66 140.1202,65.15 C139.3502,64.98 138.6102,64.75 138.0202,64.5 C137.9802,64.48 137.9502,64.46 137.9202,64.42 C137.9102,64.42 137.9102,64.41 137.9102,64.41 C137.8802,64.38 137.8602,64.33 137.8402,64.28 C137.6502,63.91 137.5102,63.09 137.3702,61.93 C137.1202,59.91 136.8402,56.81 136.2202,53.1 L136.2202,53.09 C136.2102,53.04 136.2002,52.99 136.1902,52.93 C136.1402,52.58 136.0702,52.22 136.0102,51.86 C135.8902,51.2 135.7502,50.51 135.6102,49.81 C135.5102,49.33 135.4002,48.84 135.2902,48.34 C135.1902,47.9 135.0802,47.46 134.9702,47 C134.9102,46.77 134.8502,46.53 134.7902,46.29 C134.6402,45.69 134.4702,45.08 134.2902,44.47 C134.2102,44.16 134.1202,43.85 134.0202,43.54 C133.9292,43.23 133.8302,42.92 133.7302,42.61 C133.6302,42.29 133.5302,41.98 133.4202,41.67 C133.2402,41.13 133.0502,40.58 132.8502,40.04 C132.6902,39.6 132.5202,39.16 132.3402,38.71 C132.2302,38.43 132.1102,38.14 131.9902,37.85 C131.7502,37.25 131.4802,36.65 131.2102,36.05 C131.1902,36.01 131.1702,35.97 131.1502,35.93 C131.0002,35.6 130.8502,35.29 130.7002,34.97 C130.3902,34.33 130.0702,33.69 129.7202,33.05 C129.5602,32.73 129.3802,32.41 129.2002,32.09 C129.1902,32.08 129.1792,32.06 129.1792,32.05 C128.8202,31.43 128.4602,30.81 128.0702,30.19 C127.8802,29.87 127.6792,29.56 127.4702,29.25 C127.2602,28.93 127.0502,28.62 126.8402,28.31 C126.6502,28.03 126.4502,27.75 126.2502,27.47 C126.2302,27.44 126.2002,27.41 126.1792,27.38 C125.9602,27.07 125.7402,26.76 125.5002,26.46 C125.4292,26.37 125.3602,26.28 125.2902,26.19 C124.8902,25.67 124.4802,25.16 124.0402,24.65 C123.9402,24.54 123.8402,24.42 123.7502,24.31 C123.0802,23.53 122.3702,22.77 121.6202,22.02 C121.1202,21.52 120.6002,21.03 120.0702,20.54 C119.7202,20.21 119.3502,19.89 118.9802,19.57 C118.6302,19.28 118.2802,18.98 117.9202,18.69 C117.2602,18.17 116.5902,17.66 115.8902,17.16 C115.5302,16.91 115.1792,16.66 114.8102,16.42 C114.4202,16.16 114.0302,15.9 113.6302,15.65 C113.2702,15.43 112.9102,15.21 112.5402,14.99 C112.1202,14.74 111.6792,14.49 111.2302,14.24 C110.8702,14.05 110.5002,13.85 110.1202,13.66 C109.2902,13.22 108.4292,12.81 107.5402,12.42 C105.7702,11.63 103.8902,10.91 101.8902,10.28 C101.3902,10.12 100.8802,9.96 100.3702,9.82 C99.8602,9.67 99.3402,9.52 98.8102,9.39 C98.2802,9.25 97.7402,9.11 97.2002,8.99 C96.6702,8.86 96.1402,8.75 95.5902,8.63 C93.9002,8.28 92.1402,7.98 90.3002,7.74 C89.6902,7.66 89.0802,7.58 88.4602,7.52 C87.7002,7.44 86.9402,7.36 86.1602,7.3 C85.6602,7.26 85.1402,7.22 84.6302,7.19 C84.0702,7.15 83.5102,7.12 82.9402,7.1 C81.5002,7.03 80.0202,7 78.5002,7 C17.2502,7 24.4702,56.25 24.4702,56.25 C24.4702,59.75 16.2702,59.73 17.7502,57.5 C17.8402,57.36 17.4602,55.25 17.2502,51.92 C16.3402,37.47 18.7302,-1.70530257e-13 77.7802,-1.70530257e-13 C131.4802,-1.70530257e-13 142.3602,33.17 144.4802,51.6 C144.9202,55.37 144.9802,58.52 144.9802,60.65 C144.9702,62.19 144.9202,63.2 144.9502,63.5" id="Fill-29" fill="#8DD5A9"></path>
                                <path d="M139.9297,61.5 C140.0307,62.81 140.0897,64.03 140.1197,65.15 C139.3507,64.98 138.6107,64.75 138.0207,64.5 C137.9807,64.48 137.9507,64.46 137.9197,64.42 C137.9097,64.42 137.9097,64.41 137.9097,64.41 C137.8797,64.38 137.8607,64.33 137.8397,64.28 C137.6507,63.91 137.5097,63.09 137.3697,61.93 C137.1197,59.91 136.8397,56.81 136.2197,53.1 L136.2197,53.09 C136.2097,53.04 136.2007,52.99 136.1907,52.93 C136.1407,52.58 136.0707,52.22 136.0097,51.86 C135.8907,51.2 135.7497,50.51 135.6107,49.81 C135.5097,49.33 135.4007,48.84 135.2897,48.34 C135.1907,47.9 135.0797,47.46 134.9697,47 C134.9097,46.77 134.8507,46.53 134.7897,46.29 C134.6407,45.69 134.4697,45.08 134.2897,44.47 C134.2097,44.16 134.1107,43.85 134.0207,43.54 C133.9297,43.23 133.8297,42.92 133.7307,42.61 C133.6297,42.29 133.5307,41.98 133.4197,41.67 C133.2407,41.13 133.0497,40.58 132.8507,40.04 C132.6907,39.6 132.5207,39.16 132.3397,38.71 C132.2307,38.43 132.1107,38.14 131.9907,37.85 C131.7407,37.25 131.4807,36.65 131.2097,36.05 C131.1907,36.01 131.1697,35.97 131.1507,35.93 C130.9997,35.6 130.8507,35.29 130.7007,34.97 C130.3907,34.33 130.0707,33.69 129.7197,33.05 C129.5497,32.73 129.3797,32.41 129.2007,32.09 C129.1907,32.08 129.1797,32.06 129.1797,32.05 C128.8207,31.43 128.4597,30.81 128.0707,30.19 C127.8797,29.87 127.6797,29.56 127.4697,29.25 C127.2597,28.93 127.0497,28.62 126.8397,28.31 C126.6507,28.03 126.4507,27.75 126.2497,27.47 C126.2307,27.44 126.2007,27.41 126.1797,27.38 C125.9597,27.07 125.7307,26.77 125.4997,26.46 C125.4297,26.37 125.3607,26.28 125.2897,26.19 C124.8907,25.67 124.4807,25.16 124.0397,24.65 C123.9407,24.54 123.8397,24.42 123.7497,24.31 C123.0707,23.53 122.3697,22.76 121.6197,22.02 C121.1197,21.52 120.6007,21.03 120.0707,20.54 C119.7197,20.21 119.3507,19.89 118.9807,19.57 C118.6297,19.28 118.2807,18.98 117.9197,18.69 C117.2597,18.17 116.5897,17.66 115.8907,17.16 C115.5307,16.91 115.1797,16.66 114.8107,16.42 C114.4197,16.16 114.0307,15.9 113.6297,15.65 C113.2707,15.43 112.9097,15.21 112.5397,14.99 C112.1197,14.74 111.6797,14.49 111.2307,14.24 C110.8697,14.05 110.4997,13.85 110.1197,13.66 C109.2897,13.22 108.4297,12.81 107.5397,12.42 C105.7707,11.63 103.8907,10.91 101.8907,10.28 C101.3907,10.12 100.8907,9.97 100.3697,9.82 C99.8607,9.67 99.3397,9.52 98.8107,9.39 C98.2807,9.25 97.7407,9.12 97.2007,8.99 C96.6697,8.86 96.1407,8.75 95.5897,8.63 C93.9007,8.28 92.1407,7.98 90.2997,7.74 C89.6907,7.66 89.0797,7.58 88.4597,7.52 C87.7007,7.44 86.9407,7.36 86.1597,7.3 C85.6507,7.26 85.1407,7.22 84.6297,7.19 C84.0707,7.15 83.5097,7.12 82.9407,7.1 C81.4997,7.03 80.0207,7 78.4997,7 C17.2497,7 24.4697,56.25 24.4697,56.25 C24.4697,59.75 16.2707,59.73 17.7497,57.5 C17.8397,57.36 17.4597,55.25 17.2497,51.92 L21.7497,51.5 C21.7497,51.5 15.7497,5 80.9997,5.25 C122.6697,5.41 135.1797,32.7 138.7807,52.4 L144.4807,51.6 C144.9197,55.37 144.9807,58.52 144.9807,60.65 L139.9297,61.5 Z" id="Fill-31" fill="#7FCA9C"></path>
                                <path d="M27,59.3799 L27,89.1199 C27,91.5399 25.04,93.4999 22.62,93.4999 L19.25,93.4999 L19.23,93.4999 C8.61,93.4899 -5.68434189e-14,84.8699 -5.68434189e-14,74.2499 C-5.68434189e-14,72.8599 0.15,71.4999 0.43,70.1909 C0.84,68.2899 1.53,66.4999 2.45,64.8499 C3.32,63.2999 4.4,61.8799 5.641,60.6399 C8.72,57.5599 12.84,55.5199 17.43,55.0899 C18.03,55.0299 18.641,54.9999 19.25,54.9999 L22.62,54.9999 C25.04,54.9999 27,56.9599 27,59.3799" id="Fill-33" fill="#28A85A"></path>
                                <path d="M27,59.3799 L27,89.1199 C27,91.5399 25.04,93.4999 22.62,93.4999 L19.25,93.4999 L19.23,93.4999 C19.11,90.6909 19.08,87.5199 19.101,84.1999 C19.17,73.4899 19.83,61.2899 20.22,54.9999 L22.62,54.9999 C25.04,54.9999 27,56.9599 27,59.3799" id="Fill-35" fill="#217F46"></path>
                                <path d="M27,85.0898 L27,89.1198 C27,91.5398 25.04,93.4998 22.62,93.4998 L19.25,93.4998 L19.23,93.4998 C8.61,93.4898 -5.68434189e-14,84.8698 -5.68434189e-14,74.2498 C-5.68434189e-14,72.8608 0.15,71.4998 0.43,70.1908 C2.521,73.0198 7.32,81.4408 19.101,84.1998 C21.44,84.7498 24.07,85.0798 27,85.0898" id="Fill-37" fill="#218A4A"></path>
                                <path d="M18.25,58.8799 C18.25,63.9099 14.22,67.9999 9.25,67.9999 C6.53,67.9999 4.101,66.7799 2.45,64.8499 C3.32,63.2999 4.4,61.8799 5.641,60.6399 C8.72,57.5599 12.84,55.5199 17.43,55.0899 C17.96,56.2399 18.25,57.5299 18.25,58.8799" id="Fill-39" fill="#7FCA9C"></path>
                                <path d="M136.75,59.3799 L136.75,89.1199 C136.75,91.5399 138.71,93.4999 141.13,93.4999 L144.5,93.4999 L144.521,93.4999 C155.141,93.4899 163.75,84.8699 163.75,74.2499 C163.75,72.8599 163.601,71.4999 163.32,70.1909 C162.91,68.2899 162.22,66.4999 161.3,64.8499 C160.43,63.2999 159.351,61.8799 158.11,60.6399 C155.03,57.5599 150.91,55.5199 146.32,55.0899 C145.72,55.0299 145.11,54.9999 144.5,54.9999 L141.13,54.9999 C138.71,54.9999 136.75,56.9599 136.75,59.3799" id="Fill-41" fill="#28A85A"></path>
                                <path d="M136.75,59.3799 L136.75,89.1199 C136.75,91.5399 138.71,93.4999 141.13,93.4999 L144.5,93.4999 L144.521,93.4999 C144.641,90.6909 144.67,87.5199 144.65,84.1999 C144.58,73.4899 143.92,61.2899 143.53,54.9999 L141.13,54.9999 C138.71,54.9999 136.75,56.9599 136.75,59.3799" id="Fill-43" fill="#217F46"></path>
                                <path d="M136.75,85.0898 L136.75,89.1198 C136.75,91.5398 138.71,93.4998 141.13,93.4998 L144.5,93.4998 L144.521,93.4998 C155.141,93.4898 163.75,84.8698 163.75,74.2498 C163.75,72.8608 163.601,71.4998 163.32,70.1908 C161.23,73.0198 156.43,81.4408 144.65,84.1998 C142.311,84.7498 139.68,85.0798 136.75,85.0898" id="Fill-45" fill="#218A4A"></path>
                                <path d="M145.5,58.8799 C145.5,63.9099 149.53,67.9999 154.5,67.9999 C157.22,67.9999 159.65,66.7799 161.3,64.8499 C160.43,63.2999 159.351,61.8799 158.11,60.6399 C155.03,57.5599 150.91,55.5199 146.32,55.0899 C145.79,56.2399 145.5,57.5299 145.5,58.8799" id="Fill-47" fill="#7FCA9C"></path>
                            </g>
                            <g id="notebook" transform="translate(221.579900, 228.500000)">
                                <path d="M126.375,99.5 L5.875,99.5 C4.149,99.5 2.75,98.101 2.75,96.375 L2.75,3.125 C2.75,1.399 4.149,0 5.875,0 L126.375,0 C128.102,0 129.5,1.399 129.5,3.125 L129.5,96.375 C129.5,98.101 128.102,99.5 126.375,99.5" id="Fill-49" fill="#ECECEC"></path>
                                <path d="M129.75,111 L2,111 C0.896,111 -5.68434189e-14,110.104 -5.68434189e-14,109 L-5.68434189e-14,100.25 C-5.68434189e-14,99.146 0.896,98.25 2,98.25 L129.75,98.25 C130.854,98.25 131.75,99.146 131.75,100.25 L131.75,109 C131.75,110.104 130.854,111 129.75,111" id="Fill-51" fill="#AAAAAA"></path>
                                <path d="M77.25,32 C77.25,39.317 71.318,45.25 64,45.25 C56.683,45.25 50.75,39.317 50.75,32 C50.75,24.683 56.683,18.75 64,18.75 C71.318,18.75 77.25,24.683 77.25,32" id="Fill-53" fill="#96BFF4"></path>
                            </g>
                            <rect id="table" fill="#424242" x="0.9969" y="337" width="528" height="26" rx="13"></rect>
                            <path d="M202.9969,338.836255 C202.9969,342.242737 189.121752,345 171.9969,345 C154.872048,345 140.9969,342.242737 140.9969,338.836255 C140.9969,338.193758 141.492263,337.577191 142.402419,337 L201.592376,337 C202.502531,337.577191 202.9969,338.193758 202.9969,338.836255" id="Fill-58" fill="#222222"></path>
                            <path d="M360.9969,337 C354.401107,341.552221 322.885988,345 284.995901,345 C247.106813,345 215.590694,341.552221 208.9969,337 L360.9969,337 Z" id="Fill-60" fill="#222222"></path>
                            <path d="M472.770039,337 C472.917647,337.271 472.9969,337.55 472.9969,337.83 C472.9969,340.68 465.160783,343 455.501853,343 C445.834007,343 437.9969,340.68 437.9969,337.83 C437.9969,337.55 438.076153,337.271 438.225742,337 L472.770039,337 Z" id="Fill-62" fill="#222222"></path>
                            <path d="M100.792584,337 C100.92754,337.271 101,337.55 101,337.83 C101,340.68 93.8355505,343 85.0045287,343 C76.1653552,343 69,340.68 69,337.83 C69,337.55 69.0724597,337.271 69.2092273,337 L100.792584,337 Z" id="Fill-62-Copy" fill="#222222"></path>
                            <path d="M183.3299,337.75 C181.8299,338 188.5799,340.25 187.0799,342.5 C185.5799,344.75 179.3299,340.75 183.0799,344 C186.8299,347.25 183.3299,350 163.3299,341.75 C160.6599,340.65 157.9899,339.08 155.3999,337.11 L170.6409,321.74 C178.3199,330.21 187.9709,334.6 188.8299,337 C190.0799,340.5 184.8299,337.5 183.3299,337.75" id="Fill-64" fill="#F8CCB9"></path>
                            <path d="M149.8299,339.75 C150.5729,340.586 155.3299,346.75 156.3299,346 C157.3299,345.25 177.8299,323.75 176.5799,322.25 C175.3299,320.75 172.3299,316 171.3299,316 C170.3299,316 147.8299,337.5 149.8299,339.75" id="Fill-66" fill="#134F9E"></path>
                            <g id="flowers" transform="translate(437.329900, 265.732558)">
                                <path d="M7.3115,28.0594416 C6.3745,26.8464416 1.1665,26.6944416 1.2165,28.7084416 C1.2675,30.7244416 8.5725,29.6924416 7.3115,28.0594416" id="Fill-68" fill="#008E8A"></path>
                                <path d="M8.1758,14.7225416 C7.5288,13.3335416 2.4798,12.0435416 2.0878,14.0205416 C1.6958,15.9975416 9.0488,16.5925416 8.1758,14.7225416" id="Fill-70" fill="#008E8A"></path>
                                <path d="M15.9102,5.94424163 C16.9682,4.83624163 16.3352,-0.335758365 14.3502,0.0172416349 C12.3662,0.370241635 14.4852,7.43624163 15.9102,5.94424163" id="Fill-72" fill="#008E8A"></path>
                                <path d="M27.0137,10.7606416 C28.5407,10.8826416 32.1557,7.12864163 30.6287,5.81264163 C29.1027,4.49464163 24.9567,10.5976416 27.0137,10.7606416" id="Fill-74" fill="#008E8A"></path>
                                <path d="M28.2588,20.3690416 C29.3208,21.4730416 34.5158,21.0560416 34.2458,19.0590416 C33.9768,17.0620416 26.8268,18.8830416 28.2588,20.3690416" id="Fill-76" fill="#008E8A"></path>
                                <path d="M28.4883,30.3690416 C29.2793,31.6810416 34.4353,32.4320416 34.6173,30.4260416 C34.7993,28.4180416 27.4243,28.6010416 28.4883,30.3690416" id="Fill-78" fill="#008E8A"></path>
                                <path d="M30.5,15.6375416 L30.5,41.5175416 L5.75,41.5175416 C5.75,41.5175416 3.16,24.5365416 3.83,18.0975416 C5.12,5.77754163 10.811,3.44754163 17.311,3.28654163 C17.58,3.26754163 17.851,3.26754163 18.12,3.26754163 L18.13,3.26754163 C24.96,3.26754163 30.5,8.80754163 30.5,15.6375416" id="Fill-80" fill="#218A4A"></path>
                                <path d="M30.5,15.6375416 L30.5,41.5175416 L18.11,41.5175416 C8.9,30.9675416 14.04,12.2375416 17.311,3.28654163 C17.58,3.26754163 17.851,3.26754163 18.12,3.26754163 L18.13,3.26754163 C24.96,3.26754163 30.5,8.80754163 30.5,15.6375416" id="Fill-82" fill="#28A85A"></path>
                                <path d="M31.6341678,44.8174416 L31.3684809,46.3474416 L27.3078487,69.4584416 C27.1235985,70.5074416 26.2084547,71.2674416 25.1284019,71.2674416 L10.3486781,71.2674416 C9.23910455,71.2674416 8.30258372,70.4674416 8.14989011,69.3874416 L4.91278552,46.3474416 L4.68781693,44.7484416 C4.50560255,43.4374416 5.54290116,42.2674416 6.88660495,42.2674416 L29.4455593,42.2674416 C30.8299814,42.2674416 31.86728,43.4874416 31.6341678,44.8174416" id="Fill-84" fill="#AAAAAA"></path>
                                <path d="M31.3105,45.0672416 L31.0495,46.5972416 L5.0605,46.5972416 L4.8395,44.9982416 C4.6605,43.6872416 5.6795,42.5172416 6.9995,42.5172416 L29.1605,42.5172416 C30.5205,42.5172416 31.5395,43.7372416 31.3105,45.0672416" id="Fill-86" fill="#E6E9E8"></path>
                                <path d="M32.25,44.0174416 L3.25,44.0174416 C1.455,44.0174416 -5.68434189e-14,42.5624416 -5.68434189e-14,40.7674416 C-5.68434189e-14,38.9724416 1.455,37.5174416 3.25,37.5174416 L32.25,37.5174416 C34.045,37.5174416 35.5,38.9724416 35.5,40.7674416 C35.5,42.5624416 34.045,44.0174416 32.25,44.0174416" id="Fill-88" fill="#AAAAAA"></path>
                            </g>
                            <g id="message" transform="translate(190.996900, 0.000000)">
                                <path d="M1.833,-2.84217094e-13 C0.82,-2.84217094e-13 -1.42108547e-14,0.821 -1.42108547e-14,1.833 L-1.42108547e-14,40.167 C-1.42108547e-14,41.179 0.82,42 1.833,42 L20.291,42 C21.021,42 21.675,42.436 21.959,43.107 C23.382,46.473 25.811,51.72 27.167,51.833 C28.552,51.949 30.895,46.633 31.983,43.24 C32.222,42.497 32.919,42 33.7,42 L55.5,42 C56.513,42 57.333,41.179 57.333,40.167 L57.333,1.833 C57.333,0.821 56.513,-2.84217094e-13 55.5,-2.84217094e-13 L1.833,-2.84217094e-13 Z" id="Fill-94" fill="#7FCA9C"></path>
                                <path d="M23.333,14.8335 L9.833,14.8335 C8.729,14.8335 7.833,13.9375 7.833,12.8335 C7.833,11.7295 8.729,10.8335 9.833,10.8335 L23.333,10.8335 C24.437,10.8335 25.333,11.7295 25.333,12.8335 C25.333,13.9375 24.437,14.8335 23.333,14.8335" id="Fill-96" fill="#FFFFFF"></path>
                                <path d="M45.167,14.8335 L31.667,14.8335 C30.563,14.8335 29.667,13.9375 29.667,12.8335 C29.667,11.7295 30.563,10.8335 31.667,10.8335 L45.167,10.8335 C46.271,10.8335 47.167,11.7295 47.167,12.8335 C47.167,13.9375 46.271,14.8335 45.167,14.8335" id="Fill-98" fill="#FFFFFF"></path>
                                <path d="M46.875,28.1665 L11.667,28.1665 C10.562,28.1665 9.667,27.2705 9.667,26.1665 C9.667,25.0625 10.562,24.1665 11.667,24.1665 L46.875,24.1665 C47.979,24.1665 48.875,25.0625 48.875,26.1665 C48.875,27.2705 47.979,28.1665 46.875,28.1665" id="Fill-100" fill="#FFFFFF"></path>
                            </g>
                            <g id="cards" transform="translate(489.996802, 65.862250)">
                                <path d="M97.8642983,26.9761503 L83.5252983,63.6031503 C82.7162983,65.6591503 80.4032983,66.6671503 78.3352983,65.8651503 L69.0982983,62.2481503 L23.4062983,44.3481503 C21.3492983,43.5391503 20.3352983,41.2151503 21.1432983,39.1591503 L31.0082983,13.9571503 L35.4812983,2.54115025 C36.2902983,0.48515025 38.6052983,-0.53184975 40.6712983,0.27915025 L95.6002983,21.7961503 C97.6582983,22.5951503 98.6742983,24.9201503 97.8642983,26.9761503" id="Fill-102" fill="#D6D6D6"></path>
                                <path d="M76.4863983,27.8013503 L69.0983983,62.2483503 L23.4063983,44.3483503 C21.3493983,43.5393503 20.3353983,41.2153503 21.1433983,39.1583503 L31.0073983,13.9573503 L73.4143983,23.0513503 C75.5743983,23.5153503 76.9493983,25.6403503 76.4863983,27.8013503" id="Fill-104" fill-opacity="0.494973776" fill="#AAAAAA"></path>
                                <path d="M73.8476983,28.7749503 L65.6006983,67.2309503 C65.1376983,69.3909503 63.0116983,70.7659503 60.8506983,70.3029503 L3.16269835,57.9299503 C1.00169835,57.4669503 -0.373301651,55.3409503 0.0896983492,53.1799503 L8.33769835,14.7249503 C8.80069835,12.5639503 10.9266983,11.1889503 13.0876983,11.6529503 L70.7756983,24.0249503 C72.9366983,24.4879503 74.3116983,26.6139503 73.8476983,28.7749503" id="Fill-106" fill="#ECECEC"></path>
                                <polygon id="Fill-108" fill="#FFD959" points="72.6592983 34.3189503 70.1422983 46.0519503 4.63329835 32.0019503 7.14829835 20.2689503"></polygon>
                                <path d="M55.7168983,50.1138503 L17.0958983,41.8308503 C16.1508983,41.6278503 15.5488983,40.6978503 15.7508983,39.7528503 C15.9538983,38.8078503 16.8838983,38.2058503 17.8288983,38.4088503 L56.4508983,46.6918503 C57.3958983,46.8948503 57.9978983,47.8248503 57.7948983,48.7698503 C57.5928983,49.7148503 56.6618983,50.3168503 55.7168983,50.1138503" id="Fill-110" fill="#F2B827"></path>
                                <path d="M53.0498983,59.7690503 L44.5748983,57.9520503 C43.7658983,57.7780503 43.2498983,56.9800503 43.4238983,56.1700503 C43.5978983,55.3600503 44.3948983,54.8450503 45.2048983,55.0190503 L53.6788983,56.8360503 C54.4878983,57.0100503 55.0048983,57.8070503 54.8308983,58.6170503 C54.6568983,59.4270503 53.8598983,59.9430503 53.0498983,59.7690503" id="Fill-112" fill="#F2B827"></path>
                            </g>
                            <g id="youtube" transform="translate(328.996900, 68.000000)">
                                <rect id="Rectangle" fill="#EEA099" x="0" y="0" width="50" height="39" rx="5"></rect>
                                <polygon id="Triangle" fill="#FFFFFF" transform="translate(28.000000, 19.500000) rotate(90.000000) translate(-28.000000, -19.500000) " points="28 13 36 26 20 26"></polygon>
                                <path d="M5.94807629,37.170012 C6.93840526,37.7012577 12.6602177,40.9782151 23.1135136,47.0008842 L6.93584709,48.2072828 C5.50927293,44.3109714 4.6269001,41.8407489 4.28872861,40.7966155 C4.03865994,40.024507 2.62610903,36.8518868 3.28870318,36.3792983 C3.95129733,35.9067098 4.47455327,36.4862046 5.94807629,37.170012 Z" id="Triangle" fill="#EEA099" transform="translate(13.113514, 42.207283) scale(1, -1) translate(-13.113514, -42.207283) "></path>
                            </g>
                            <g id="search" transform="translate(35.358200, 42.499500)">
                                <path d="M49.4873,59.7305 L46.5163,61.8405 C45.7973,62.3505 44.8063,62.1805 44.2973,61.4605 L36.0563,49.8705 L31.2663,43.1205 C33.1973,42.4805 35.5473,41.5305 37.5773,40.2005 L41.6273,45.9005 L49.8673,57.5105 C50.3773,58.2205 50.2073,59.2205 49.4873,59.7305" id="Fill-114" fill="#F2B827"></path>
                                <path d="M41.627,45.9004 C39.267,48.3904 37.427,49.4704 36.057,49.8704 L31.267,43.1204 C33.197,42.4804 35.547,41.5304 37.577,40.2004 L41.627,45.9004 Z" id="Fill-116" fill="#D6A222"></path>
                                <path d="M44.667,24.0005 C44.667,34.1705 37.717,42.7105 28.317,45.1305 C26.567,45.5905 24.728,45.8305 22.837,45.8305 C22.647,45.8305 22.457,45.8305 22.267,45.8105 C20.457,45.7805 18.717,45.5105 17.047,45.0505 C13.417,44.0605 10.167,42.1505 7.557,39.6005 C3.507,35.6305 0.997,30.1105 0.997,24.0005 C0.997,13.6905 8.147,5.0505 17.767,2.7705 C19.397,2.3705 21.087,2.1705 22.837,2.1705 C24.867,2.1705 26.837,2.4505 28.707,2.9805 C30.427,3.4505 32.057,4.1305 33.577,5.0005 C35.367,6.0105 36.997,7.2605 38.417,8.7205 C42.287,12.6505 44.667,18.0505 44.667,24.0005" id="Fill-118" fill="#FFFFFF"></path>
                                <path d="M28.707,2.9805 L17.047,45.0505 C13.417,44.0605 10.167,42.1505 7.557,39.6005 L17.767,2.7705 C19.397,2.3705 21.087,2.1705 22.837,2.1705 C24.867,2.1705 26.837,2.4505 28.707,2.9805" id="Fill-120" fill="#FFFFFF"></path>
                                <path d="M38.417,8.7207 L28.317,45.1307 C26.567,45.5907 24.728,45.8307 22.837,45.8307 C22.647,45.8307 22.457,45.8307 22.267,45.8107 L33.577,5.0007 C35.367,6.0107 36.997,7.2607 38.417,8.7207" id="Fill-122" fill="#FFFFFF"></path>
                                <path d="M24.334,42.667 C14.208,42.667 6,34.459 6,24.334 C6,14.209 14.208,6 24.334,6 C34.459,6 42.667,14.209 42.667,24.334 C42.667,34.459 34.459,42.667 24.334,42.667 M24.334,6.53699317e-13 C10.895,6.53699317e-13 1.42108547e-14,10.895 1.42108547e-14,24.334 C1.42108547e-14,37.772 10.895,48.667 24.334,48.667 C37.772,48.667 48.667,37.772 48.667,24.334 C48.667,10.895 37.772,6.53699317e-13 24.334,6.53699317e-13" id="Fill-124" fill="#FFD959"></path>
                            </g>
                        </g>
                        <g id="clock" transform="translate(0.000000, 180.115800)" fill="#96BFF4">
                            <path d="M33.833,61.141 C18.752,61.141 6.526,48.915 6.526,33.834 C6.526,18.753 18.752,6.527 33.833,6.527 C48.914,6.527 61.14,18.753 61.14,33.834 C61.14,48.915 48.914,61.141 33.833,61.141 M33.833,6.4659389e-13 C15.147,6.4659389e-13 -2.84217094e-14,15.149 -2.84217094e-14,33.834 C-2.84217094e-14,52.52 15.147,67.667 33.833,67.667 C52.519,67.667 67.666,52.52 67.666,33.834 C67.666,15.149 52.519,6.4659389e-13 33.833,6.4659389e-13" id="Fill-90"></path>
                            <path d="M33.7803,34.8686 L33.7803,17.3586 C33.7803,16.6126 33.1763,16.0086 32.4293,16.0086 L31.0243,16.0086 C30.2783,16.0086 29.6733,16.6126 29.6733,17.3586 L29.6733,36.2206 L29.6733,38.9756 C29.6733,39.7226 30.2783,40.3276 31.0243,40.3276 L33.7803,40.3276 L52.6413,40.3276 C53.3873,40.3276 53.9933,39.7226 53.9933,38.9756 L53.9933,37.5706 C53.9933,36.8246 53.3873,36.2206 52.6413,36.2206 L35.1323,36.2206 C34.3853,36.2206 33.7803,35.6146 33.7803,34.8686" id="Fill-92"></path>
                        </g>
                    </g>
                </g>
            </g>
        </g>
    </g>
</svg>